ISO-10303-21;
HEADER;
/* Generated by software containing ST-Developer
 * from STEP Tools, Inc. (www.steptools.com) 
 */
/* OPTION: strings as raw bytes, not using required /X/ escapes */

FILE_DESCRIPTION(
/* description */ ('Unknown'),
/* implementation_level */ '2;1');

FILE_NAME(
/* name */ '5010',
/* time_stamp */ '2025-10-20T08:08:06-07:00',
/* author */ ('Unknown'),
/* organization */ ('Unknown'),
/* preprocessor_version */ 'ST-DEVELOPER v20',
/* originating_system */ 'Solid Edge',
/* authorisation */ 'Unknown');

FILE_SCHEMA (('AUTOMOTIVE_DESIGN {1 0 10303 214 3 1 1}'));
ENDSEC;

DATA;
#10=PROPERTY_DEFINITION_REPRESENTATION(#14,#12);
#11=PROPERTY_DEFINITION_REPRESENTATION(#15,#13);
#12=REPRESENTATION('',(#16),#1843);
#13=REPRESENTATION('',(#17),#1843);
#14=PROPERTY_DEFINITION('pmi validation property','',#1848);
#15=PROPERTY_DEFINITION('pmi validation property','',#1848);
#16=VALUE_REPRESENTATION_ITEM('number of annotations',COUNT_MEASURE(0.));
#17=VALUE_REPRESENTATION_ITEM('number of views',COUNT_MEASURE(0.));
#18=SHAPE_REPRESENTATION_RELATIONSHIP('','',#1245,#19);
#19=ADVANCED_BREP_SHAPE_REPRESENTATION('',(#1243),#1843);
#20=CYLINDRICAL_SURFACE('',#1277,0.75547973243493);
#21=CYLINDRICAL_SURFACE('',#1280,0.381019691556569);
#22=CYLINDRICAL_SURFACE('',#1283,1.10960041929646);
#23=CYLINDRICAL_SURFACE('',#1284,1.48406046017482);
#24=CYLINDRICAL_SURFACE('',#1287,0.89552026756507);
#25=CYLINDRICAL_SURFACE('',#1288,1.26998030844343);
#26=CYLINDRICAL_SURFACE('',#1291,1.10960041929646);
#27=CYLINDRICAL_SURFACE('',#1292,1.48406046017482);
#28=CYLINDRICAL_SURFACE('',#1293,0.75547973243493);
#29=CYLINDRICAL_SURFACE('',#1296,0.381019691556568);
#30=CYLINDRICAL_SURFACE('',#1309,0.381019691556569);
#31=CYLINDRICAL_SURFACE('',#1310,0.381019691556568);
#32=CYLINDRICAL_SURFACE('',#1315,1.5875);
#33=CYLINDRICAL_SURFACE('',#1326,1.5875);
#34=CIRCLE('',#1250,0.381019691556569);
#35=CIRCLE('',#1251,1.48406046017482);
#36=CIRCLE('',#1252,1.26998030844343);
#37=CIRCLE('',#1253,1.48406046017482);
#38=CIRCLE('',#1254,0.381019691556568);
#39=CIRCLE('',#1255,0.75547973243493);
#40=CIRCLE('',#1256,1.10960041929646);
#41=CIRCLE('',#1257,0.89552026756507);
#42=CIRCLE('',#1258,1.10960041929646);
#43=CIRCLE('',#1259,0.75547973243493);
#44=CIRCLE('',#1262,0.381019691556568);
#45=CIRCLE('',#1263,1.48406046017482);
#46=CIRCLE('',#1264,1.26998030844343);
#47=CIRCLE('',#1265,1.48406046017482);
#48=CIRCLE('',#1266,0.381019691556569);
#49=CIRCLE('',#1267,0.75547973243493);
#50=CIRCLE('',#1268,1.10960041929646);
#51=CIRCLE('',#1269,0.89552026756507);
#52=CIRCLE('',#1270,1.10960041929646);
#53=CIRCLE('',#1271,0.75547973243493);
#54=CIRCLE('',#1278,0.75547973243493);
#55=CIRCLE('',#1279,0.75547973243493);
#56=CIRCLE('',#1281,0.381019691556569);
#57=CIRCLE('',#1282,0.381019691556569);
#58=CIRCLE('',#1294,0.75547973243493);
#59=CIRCLE('',#1295,0.75547973243493);
#60=CIRCLE('',#1297,0.381019691556568);
#61=CIRCLE('',#1298,0.381019691556568);
#62=CIRCLE('',#1316,1.5875);
#63=CIRCLE('',#1317,1.5875);
#64=CIRCLE('',#1319,1.5875);
#65=CIRCLE('',#1325,1.5875);
#66=ORIENTED_EDGE('',*,*,#322,.F.);
#67=ORIENTED_EDGE('',*,*,#323,.F.);
#68=ORIENTED_EDGE('',*,*,#324,.F.);
#69=ORIENTED_EDGE('',*,*,#325,.F.);
#70=ORIENTED_EDGE('',*,*,#326,.F.);
#71=ORIENTED_EDGE('',*,*,#327,.F.);
#72=ORIENTED_EDGE('',*,*,#328,.F.);
#73=ORIENTED_EDGE('',*,*,#329,.F.);
#74=ORIENTED_EDGE('',*,*,#330,.F.);
#75=ORIENTED_EDGE('',*,*,#331,.T.);
#76=ORIENTED_EDGE('',*,*,#332,.T.);
#77=ORIENTED_EDGE('',*,*,#333,.T.);
#78=ORIENTED_EDGE('',*,*,#334,.T.);
#79=ORIENTED_EDGE('',*,*,#335,.T.);
#80=ORIENTED_EDGE('',*,*,#336,.T.);
#81=ORIENTED_EDGE('',*,*,#337,.T.);
#82=ORIENTED_EDGE('',*,*,#338,.T.);
#83=ORIENTED_EDGE('',*,*,#339,.F.);
#84=ORIENTED_EDGE('',*,*,#340,.F.);
#85=ORIENTED_EDGE('',*,*,#341,.F.);
#86=ORIENTED_EDGE('',*,*,#342,.F.);
#87=ORIENTED_EDGE('',*,*,#343,.F.);
#88=ORIENTED_EDGE('',*,*,#344,.F.);
#89=ORIENTED_EDGE('',*,*,#345,.F.);
#90=ORIENTED_EDGE('',*,*,#346,.F.);
#91=ORIENTED_EDGE('',*,*,#347,.T.);
#92=ORIENTED_EDGE('',*,*,#329,.T.);
#93=ORIENTED_EDGE('',*,*,#348,.F.);
#94=ORIENTED_EDGE('',*,*,#349,.F.);
#95=ORIENTED_EDGE('',*,*,#350,.F.);
#96=ORIENTED_EDGE('',*,*,#351,.F.);
#97=ORIENTED_EDGE('',*,*,#352,.F.);
#98=ORIENTED_EDGE('',*,*,#353,.F.);
#99=ORIENTED_EDGE('',*,*,#354,.F.);
#100=ORIENTED_EDGE('',*,*,#355,.F.);
#101=ORIENTED_EDGE('',*,*,#356,.F.);
#102=ORIENTED_EDGE('',*,*,#357,.T.);
#103=ORIENTED_EDGE('',*,*,#358,.T.);
#104=ORIENTED_EDGE('',*,*,#359,.T.);
#105=ORIENTED_EDGE('',*,*,#360,.T.);
#106=ORIENTED_EDGE('',*,*,#361,.T.);
#107=ORIENTED_EDGE('',*,*,#362,.T.);
#108=ORIENTED_EDGE('',*,*,#363,.T.);
#109=ORIENTED_EDGE('',*,*,#364,.T.);
#110=ORIENTED_EDGE('',*,*,#365,.F.);
#111=ORIENTED_EDGE('',*,*,#366,.T.);
#112=ORIENTED_EDGE('',*,*,#327,.T.);
#113=ORIENTED_EDGE('',*,*,#367,.F.);
#114=ORIENTED_EDGE('',*,*,#368,.T.);
#115=ORIENTED_EDGE('',*,*,#369,.T.);
#116=ORIENTED_EDGE('',*,*,#370,.F.);
#117=ORIENTED_EDGE('',*,*,#346,.T.);
#118=ORIENTED_EDGE('',*,*,#371,.T.);
#119=ORIENTED_EDGE('',*,*,#372,.T.);
#120=ORIENTED_EDGE('',*,*,#373,.F.);
#121=ORIENTED_EDGE('',*,*,#365,.T.);
#122=ORIENTED_EDGE('',*,*,#374,.F.);
#123=ORIENTED_EDGE('',*,*,#375,.F.);
#124=ORIENTED_EDGE('',*,*,#369,.F.);
#125=ORIENTED_EDGE('',*,*,#376,.T.);
#126=ORIENTED_EDGE('',*,*,#377,.F.);
#127=ORIENTED_EDGE('',*,*,#378,.F.);
#128=ORIENTED_EDGE('',*,*,#379,.F.);
#129=ORIENTED_EDGE('',*,*,#372,.F.);
#130=ORIENTED_EDGE('',*,*,#380,.T.);
#131=ORIENTED_EDGE('',*,*,#381,.T.);
#132=ORIENTED_EDGE('',*,*,#377,.T.);
#133=ORIENTED_EDGE('',*,*,#382,.T.);
#134=ORIENTED_EDGE('',*,*,#345,.T.);
#135=ORIENTED_EDGE('',*,*,#383,.F.);
#136=ORIENTED_EDGE('',*,*,#358,.F.);
#137=ORIENTED_EDGE('',*,*,#384,.F.);
#138=ORIENTED_EDGE('',*,*,#385,.T.);
#139=ORIENTED_EDGE('',*,*,#386,.T.);
#140=ORIENTED_EDGE('',*,*,#387,.F.);
#141=ORIENTED_EDGE('',*,*,#374,.T.);
#142=ORIENTED_EDGE('',*,*,#383,.T.);
#143=ORIENTED_EDGE('',*,*,#344,.T.);
#144=ORIENTED_EDGE('',*,*,#388,.F.);
#145=ORIENTED_EDGE('',*,*,#359,.F.);
#146=ORIENTED_EDGE('',*,*,#389,.T.);
#147=ORIENTED_EDGE('',*,*,#355,.T.);
#148=ORIENTED_EDGE('',*,*,#390,.F.);
#149=ORIENTED_EDGE('',*,*,#332,.F.);
#150=ORIENTED_EDGE('',*,*,#388,.T.);
#151=ORIENTED_EDGE('',*,*,#343,.T.);
#152=ORIENTED_EDGE('',*,*,#391,.F.);
#153=ORIENTED_EDGE('',*,*,#360,.F.);
#154=ORIENTED_EDGE('',*,*,#390,.T.);
#155=ORIENTED_EDGE('',*,*,#354,.T.);
#156=ORIENTED_EDGE('',*,*,#392,.F.);
#157=ORIENTED_EDGE('',*,*,#333,.F.);
#158=ORIENTED_EDGE('',*,*,#391,.T.);
#159=ORIENTED_EDGE('',*,*,#342,.T.);
#160=ORIENTED_EDGE('',*,*,#393,.F.);
#161=ORIENTED_EDGE('',*,*,#361,.F.);
#162=ORIENTED_EDGE('',*,*,#392,.T.);
#163=ORIENTED_EDGE('',*,*,#353,.T.);
#164=ORIENTED_EDGE('',*,*,#394,.F.);
#165=ORIENTED_EDGE('',*,*,#334,.F.);
#166=ORIENTED_EDGE('',*,*,#393,.T.);
#167=ORIENTED_EDGE('',*,*,#341,.T.);
#168=ORIENTED_EDGE('',*,*,#395,.F.);
#169=ORIENTED_EDGE('',*,*,#362,.F.);
#170=ORIENTED_EDGE('',*,*,#394,.T.);
#171=ORIENTED_EDGE('',*,*,#352,.T.);
#172=ORIENTED_EDGE('',*,*,#396,.F.);
#173=ORIENTED_EDGE('',*,*,#335,.F.);
#174=ORIENTED_EDGE('',*,*,#395,.T.);
#175=ORIENTED_EDGE('',*,*,#340,.T.);
#176=ORIENTED_EDGE('',*,*,#397,.F.);
#177=ORIENTED_EDGE('',*,*,#363,.F.);
#178=ORIENTED_EDGE('',*,*,#396,.T.);
#179=ORIENTED_EDGE('',*,*,#351,.T.);
#180=ORIENTED_EDGE('',*,*,#398,.F.);
#181=ORIENTED_EDGE('',*,*,#336,.F.);
#182=ORIENTED_EDGE('',*,*,#397,.T.);
#183=ORIENTED_EDGE('',*,*,#339,.T.);
#184=ORIENTED_EDGE('',*,*,#399,.T.);
#185=ORIENTED_EDGE('',*,*,#400,.F.);
#186=ORIENTED_EDGE('',*,*,#401,.F.);
#187=ORIENTED_EDGE('',*,*,#364,.F.);
#188=ORIENTED_EDGE('',*,*,#402,.F.);
#189=ORIENTED_EDGE('',*,*,#403,.T.);
#190=ORIENTED_EDGE('',*,*,#404,.T.);
#191=ORIENTED_EDGE('',*,*,#405,.F.);
#192=ORIENTED_EDGE('',*,*,#406,.T.);
#193=ORIENTED_EDGE('',*,*,#407,.T.);
#194=ORIENTED_EDGE('',*,*,#408,.F.);
#195=ORIENTED_EDGE('',*,*,#405,.T.);
#196=ORIENTED_EDGE('',*,*,#409,.T.);
#197=ORIENTED_EDGE('',*,*,#410,.T.);
#198=ORIENTED_EDGE('',*,*,#411,.T.);
#199=ORIENTED_EDGE('',*,*,#412,.F.);
#200=ORIENTED_EDGE('',*,*,#413,.F.);
#201=ORIENTED_EDGE('',*,*,#400,.T.);
#202=ORIENTED_EDGE('',*,*,#414,.F.);
#203=ORIENTED_EDGE('',*,*,#415,.F.);
#204=ORIENTED_EDGE('',*,*,#411,.F.);
#205=ORIENTED_EDGE('',*,*,#416,.T.);
#206=ORIENTED_EDGE('',*,*,#417,.F.);
#207=ORIENTED_EDGE('',*,*,#418,.F.);
#208=ORIENTED_EDGE('',*,*,#407,.F.);
#209=ORIENTED_EDGE('',*,*,#419,.T.);
#210=ORIENTED_EDGE('',*,*,#420,.T.);
#211=ORIENTED_EDGE('',*,*,#323,.T.);
#212=ORIENTED_EDGE('',*,*,#421,.F.);
#213=ORIENTED_EDGE('',*,*,#414,.T.);
#214=ORIENTED_EDGE('',*,*,#422,.T.);
#215=ORIENTED_EDGE('',*,*,#325,.T.);
#216=ORIENTED_EDGE('',*,*,#423,.F.);
#217=ORIENTED_EDGE('',*,*,#417,.T.);
#218=ORIENTED_EDGE('',*,*,#410,.F.);
#219=ORIENTED_EDGE('',*,*,#424,.T.);
#220=ORIENTED_EDGE('',*,*,#418,.T.);
#221=ORIENTED_EDGE('',*,*,#423,.T.);
#222=ORIENTED_EDGE('',*,*,#324,.T.);
#223=ORIENTED_EDGE('',*,*,#420,.F.);
#224=ORIENTED_EDGE('',*,*,#416,.F.);
#225=ORIENTED_EDGE('',*,*,#370,.T.);
#226=ORIENTED_EDGE('',*,*,#425,.T.);
#227=ORIENTED_EDGE('',*,*,#380,.F.);
#228=ORIENTED_EDGE('',*,*,#371,.F.);
#229=ORIENTED_EDGE('',*,*,#367,.T.);
#230=ORIENTED_EDGE('',*,*,#326,.T.);
#231=ORIENTED_EDGE('',*,*,#347,.F.);
#232=ORIENTED_EDGE('',*,*,#379,.T.);
#233=ORIENTED_EDGE('',*,*,#426,.T.);
#234=ORIENTED_EDGE('',*,*,#368,.F.);
#235=ORIENTED_EDGE('',*,*,#348,.T.);
#236=ORIENTED_EDGE('',*,*,#328,.T.);
#237=ORIENTED_EDGE('',*,*,#366,.F.);
#238=ORIENTED_EDGE('',*,*,#373,.T.);
#239=ORIENTED_EDGE('',*,*,#419,.F.);
#240=ORIENTED_EDGE('',*,*,#427,.T.);
#241=ORIENTED_EDGE('',*,*,#412,.T.);
#242=ORIENTED_EDGE('',*,*,#415,.T.);
#243=ORIENTED_EDGE('',*,*,#421,.T.);
#244=ORIENTED_EDGE('',*,*,#322,.T.);
#245=ORIENTED_EDGE('',*,*,#422,.F.);
#246=ORIENTED_EDGE('',*,*,#331,.F.);
#247=ORIENTED_EDGE('',*,*,#428,.T.);
#248=ORIENTED_EDGE('',*,*,#356,.T.);
#249=ORIENTED_EDGE('',*,*,#389,.F.);
#250=ORIENTED_EDGE('',*,*,#350,.T.);
#251=ORIENTED_EDGE('',*,*,#429,.T.);
#252=ORIENTED_EDGE('',*,*,#337,.F.);
#253=ORIENTED_EDGE('',*,*,#398,.T.);
#254=ORIENTED_EDGE('',*,*,#386,.F.);
#255=ORIENTED_EDGE('',*,*,#430,.T.);
#256=ORIENTED_EDGE('',*,*,#431,.F.);
#257=ORIENTED_EDGE('',*,*,#432,.F.);
#258=ORIENTED_EDGE('',*,*,#387,.T.);
#259=ORIENTED_EDGE('',*,*,#432,.T.);
#260=ORIENTED_EDGE('',*,*,#433,.F.);
#261=ORIENTED_EDGE('',*,*,#375,.T.);
#262=ORIENTED_EDGE('',*,*,#403,.F.);
#263=ORIENTED_EDGE('',*,*,#434,.T.);
#264=ORIENTED_EDGE('',*,*,#435,.F.);
#265=ORIENTED_EDGE('',*,*,#436,.F.);
#266=ORIENTED_EDGE('',*,*,#385,.F.);
#267=ORIENTED_EDGE('',*,*,#376,.F.);
#268=ORIENTED_EDGE('',*,*,#437,.F.);
#269=ORIENTED_EDGE('',*,*,#430,.F.);
#270=ORIENTED_EDGE('',*,*,#438,.F.);
#271=ORIENTED_EDGE('',*,*,#439,.F.);
#272=ORIENTED_EDGE('',*,*,#440,.T.);
#273=ORIENTED_EDGE('',*,*,#441,.T.);
#274=ORIENTED_EDGE('',*,*,#437,.T.);
#275=ORIENTED_EDGE('',*,*,#426,.F.);
#276=ORIENTED_EDGE('',*,*,#442,.T.);
#277=ORIENTED_EDGE('',*,*,#427,.F.);
#278=ORIENTED_EDGE('',*,*,#443,.T.);
#279=ORIENTED_EDGE('',*,*,#435,.T.);
#280=ORIENTED_EDGE('',*,*,#444,.T.);
#281=ORIENTED_EDGE('',*,*,#424,.F.);
#282=ORIENTED_EDGE('',*,*,#445,.T.);
#283=ORIENTED_EDGE('',*,*,#425,.F.);
#284=ORIENTED_EDGE('',*,*,#433,.T.);
#285=ORIENTED_EDGE('',*,*,#431,.T.);
#286=ORIENTED_EDGE('',*,*,#441,.F.);
#287=ORIENTED_EDGE('',*,*,#446,.F.);
#288=ORIENTED_EDGE('',*,*,#409,.F.);
#289=ORIENTED_EDGE('',*,*,#399,.F.);
#290=ORIENTED_EDGE('',*,*,#447,.T.);
#291=ORIENTED_EDGE('',*,*,#382,.F.);
#292=ORIENTED_EDGE('',*,*,#381,.F.);
#293=ORIENTED_EDGE('',*,*,#445,.F.);
#294=ORIENTED_EDGE('',*,*,#408,.T.);
#295=ORIENTED_EDGE('',*,*,#444,.F.);
#296=ORIENTED_EDGE('',*,*,#434,.F.);
#297=ORIENTED_EDGE('',*,*,#402,.T.);
#298=ORIENTED_EDGE('',*,*,#413,.T.);
#299=ORIENTED_EDGE('',*,*,#442,.F.);
#300=ORIENTED_EDGE('',*,*,#378,.T.);
#301=ORIENTED_EDGE('',*,*,#384,.T.);
#302=ORIENTED_EDGE('',*,*,#448,.T.);
#303=ORIENTED_EDGE('',*,*,#401,.T.);
#304=ORIENTED_EDGE('',*,*,#406,.F.);
#305=ORIENTED_EDGE('',*,*,#404,.F.);
#306=ORIENTED_EDGE('',*,*,#436,.T.);
#307=ORIENTED_EDGE('',*,*,#443,.F.);
#308=ORIENTED_EDGE('',*,*,#357,.F.);
#309=ORIENTED_EDGE('',*,*,#428,.F.);
#310=ORIENTED_EDGE('',*,*,#330,.T.);
#311=ORIENTED_EDGE('',*,*,#447,.F.);
#312=ORIENTED_EDGE('',*,*,#338,.F.);
#313=ORIENTED_EDGE('',*,*,#429,.F.);
#314=ORIENTED_EDGE('',*,*,#349,.T.);
#315=ORIENTED_EDGE('',*,*,#448,.F.);
#316=ORIENTED_EDGE('',*,*,#439,.T.);
#317=ORIENTED_EDGE('',*,*,#449,.T.);
#318=ORIENTED_EDGE('',*,*,#449,.F.);
#319=ORIENTED_EDGE('',*,*,#438,.T.);
#320=ORIENTED_EDGE('',*,*,#446,.T.);
#321=ORIENTED_EDGE('',*,*,#440,.F.);
#322=EDGE_CURVE('',#450,#451,#530,.T.);
#323=EDGE_CURVE('',#452,#450,#531,.T.);
#324=EDGE_CURVE('',#453,#452,#532,.T.);
#325=EDGE_CURVE('',#451,#453,#533,.T.);
#326=EDGE_CURVE('',#454,#455,#534,.T.);
#327=EDGE_CURVE('',#456,#454,#535,.T.);
#328=EDGE_CURVE('',#457,#456,#536,.T.);
#329=EDGE_CURVE('',#455,#457,#537,.T.);
#330=EDGE_CURVE('',#458,#459,#538,.T.);
#331=EDGE_CURVE('',#458,#460,#34,.T.);
#332=EDGE_CURVE('',#460,#461,#35,.T.);
#333=EDGE_CURVE('',#461,#462,#539,.T.);
#334=EDGE_CURVE('',#462,#463,#36,.T.);
#335=EDGE_CURVE('',#463,#464,#540,.T.);
#336=EDGE_CURVE('',#464,#465,#37,.T.);
#337=EDGE_CURVE('',#465,#466,#38,.T.);
#338=EDGE_CURVE('',#466,#467,#541,.T.);
#339=EDGE_CURVE('',#468,#467,#39,.T.);
#340=EDGE_CURVE('',#469,#468,#40,.T.);
#341=EDGE_CURVE('',#470,#469,#542,.T.);
#342=EDGE_CURVE('',#471,#470,#41,.T.);
#343=EDGE_CURVE('',#472,#471,#543,.T.);
#344=EDGE_CURVE('',#473,#472,#42,.T.);
#345=EDGE_CURVE('',#459,#473,#43,.T.);
#346=EDGE_CURVE('',#474,#475,#544,.T.);
#347=EDGE_CURVE('',#474,#455,#545,.T.);
#348=EDGE_CURVE('',#475,#457,#546,.T.);
#349=EDGE_CURVE('',#476,#477,#547,.T.);
#350=EDGE_CURVE('',#478,#476,#44,.T.);
#351=EDGE_CURVE('',#479,#478,#45,.T.);
#352=EDGE_CURVE('',#480,#479,#548,.T.);
#353=EDGE_CURVE('',#481,#480,#46,.T.);
#354=EDGE_CURVE('',#482,#481,#549,.T.);
#355=EDGE_CURVE('',#483,#482,#47,.T.);
#356=EDGE_CURVE('',#484,#483,#48,.T.);
#357=EDGE_CURVE('',#484,#485,#550,.T.);
#358=EDGE_CURVE('',#485,#486,#49,.T.);
#359=EDGE_CURVE('',#486,#487,#50,.T.);
#360=EDGE_CURVE('',#487,#488,#551,.T.);
#361=EDGE_CURVE('',#488,#489,#51,.T.);
#362=EDGE_CURVE('',#489,#490,#552,.T.);
#363=EDGE_CURVE('',#490,#491,#52,.T.);
#364=EDGE_CURVE('',#491,#477,#53,.T.);
#365=EDGE_CURVE('',#492,#493,#553,.T.);
#366=EDGE_CURVE('',#492,#456,#554,.T.);
#367=EDGE_CURVE('',#493,#454,#555,.T.);
#368=EDGE_CURVE('',#475,#494,#556,.T.);
#369=EDGE_CURVE('',#494,#495,#557,.T.);
#370=EDGE_CURVE('',#474,#495,#558,.T.);
#371=EDGE_CURVE('',#493,#496,#559,.T.);
#372=EDGE_CURVE('',#496,#497,#560,.T.);
#373=EDGE_CURVE('',#492,#497,#561,.T.);
#374=EDGE_CURVE('',#498,#499,#562,.T.);
#375=EDGE_CURVE('',#495,#498,#563,.T.);
#376=EDGE_CURVE('',#494,#499,#564,.T.);
#377=EDGE_CURVE('',#500,#501,#565,.T.);
#378=EDGE_CURVE('',#502,#500,#566,.T.);
#379=EDGE_CURVE('',#497,#502,#567,.T.);
#380=EDGE_CURVE('',#496,#503,#568,.T.);
#381=EDGE_CURVE('',#503,#501,#569,.T.);
#382=EDGE_CURVE('',#501,#459,#54,.T.);
#383=EDGE_CURVE('',#486,#473,#570,.T.);
#384=EDGE_CURVE('',#500,#485,#55,.T.);
#385=EDGE_CURVE('',#499,#504,#56,.T.);
#386=EDGE_CURVE('',#504,#505,#571,.T.);
#387=EDGE_CURVE('',#498,#505,#57,.T.);
#388=EDGE_CURVE('',#487,#472,#572,.T.);
#389=EDGE_CURVE('',#460,#483,#573,.T.);
#390=EDGE_CURVE('',#461,#482,#574,.T.);
#391=EDGE_CURVE('',#488,#471,#575,.T.);
#392=EDGE_CURVE('',#462,#481,#576,.T.);
#393=EDGE_CURVE('',#489,#470,#577,.T.);
#394=EDGE_CURVE('',#463,#480,#578,.T.);
#395=EDGE_CURVE('',#490,#469,#579,.T.);
#396=EDGE_CURVE('',#464,#479,#580,.T.);
#397=EDGE_CURVE('',#491,#468,#581,.T.);
#398=EDGE_CURVE('',#465,#478,#582,.T.);
#399=EDGE_CURVE('',#467,#506,#58,.T.);
#400=EDGE_CURVE('',#507,#506,#583,.T.);
#401=EDGE_CURVE('',#477,#507,#59,.T.);
#402=EDGE_CURVE('',#508,#509,#60,.T.);
#403=EDGE_CURVE('',#508,#510,#584,.T.);
#404=EDGE_CURVE('',#510,#511,#61,.T.);
#405=EDGE_CURVE('',#509,#511,#585,.T.);
#406=EDGE_CURVE('',#511,#512,#586,.T.);
#407=EDGE_CURVE('',#512,#513,#587,.T.);
#408=EDGE_CURVE('',#509,#513,#588,.T.);
#409=EDGE_CURVE('',#506,#514,#589,.T.);
#410=EDGE_CURVE('',#514,#515,#590,.T.);
#411=EDGE_CURVE('',#515,#516,#591,.T.);
#412=EDGE_CURVE('',#517,#516,#592,.T.);
#413=EDGE_CURVE('',#507,#517,#593,.T.);
#414=EDGE_CURVE('',#518,#519,#594,.T.);
#415=EDGE_CURVE('',#516,#518,#595,.T.);
#416=EDGE_CURVE('',#515,#519,#596,.T.);
#417=EDGE_CURVE('',#520,#521,#597,.T.);
#418=EDGE_CURVE('',#513,#520,#598,.T.);
#419=EDGE_CURVE('',#512,#521,#599,.T.);
#420=EDGE_CURVE('',#519,#452,#600,.T.);
#421=EDGE_CURVE('',#518,#450,#601,.T.);
#422=EDGE_CURVE('',#521,#451,#602,.T.);
#423=EDGE_CURVE('',#520,#453,#603,.T.);
#424=EDGE_CURVE('',#514,#513,#604,.T.);
#425=EDGE_CURVE('',#495,#503,#605,.T.);
#426=EDGE_CURVE('',#502,#494,#606,.T.);
#427=EDGE_CURVE('',#512,#517,#607,.T.);
#428=EDGE_CURVE('',#458,#484,#608,.T.);
#429=EDGE_CURVE('',#476,#466,#609,.T.);
#430=EDGE_CURVE('',#504,#522,#610,.T.);
#431=EDGE_CURVE('',#523,#522,#611,.T.);
#432=EDGE_CURVE('',#505,#523,#612,.T.);
#433=EDGE_CURVE('',#495,#523,#613,.T.);
#434=EDGE_CURVE('',#508,#524,#614,.T.);
#435=EDGE_CURVE('',#525,#524,#615,.T.);
#436=EDGE_CURVE('',#510,#525,#616,.T.);
#437=EDGE_CURVE('',#522,#494,#617,.T.);
#438=EDGE_CURVE('',#526,#527,#618,.T.);
#439=EDGE_CURVE('',#528,#526,#62,.T.);
#440=EDGE_CURVE('',#528,#529,#619,.T.);
#441=EDGE_CURVE('',#529,#527,#63,.T.);
#442=EDGE_CURVE('',#502,#517,#620,.T.);
#443=EDGE_CURVE('',#512,#525,#621,.T.);
#444=EDGE_CURVE('',#524,#513,#622,.T.);
#445=EDGE_CURVE('',#514,#503,#623,.T.);
#446=EDGE_CURVE('',#527,#529,#64,.T.);
#447=EDGE_CURVE('',#467,#459,#624,.T.);
#448=EDGE_CURVE('',#485,#477,#625,.T.);
#449=EDGE_CURVE('',#526,#528,#65,.T.);
#450=VERTEX_POINT('',#1588);
#451=VERTEX_POINT('',#1589);
#452=VERTEX_POINT('',#1591);
#453=VERTEX_POINT('',#1593);
#454=VERTEX_POINT('',#1597);
#455=VERTEX_POINT('',#1598);
#456=VERTEX_POINT('',#1600);
#457=VERTEX_POINT('',#1602);
#458=VERTEX_POINT('',#1606);
#459=VERTEX_POINT('',#1607);
#460=VERTEX_POINT('',#1609);
#461=VERTEX_POINT('',#1611);
#462=VERTEX_POINT('',#1613);
#463=VERTEX_POINT('',#1615);
#464=VERTEX_POINT('',#1617);
#465=VERTEX_POINT('',#1619);
#466=VERTEX_POINT('',#1621);
#467=VERTEX_POINT('',#1623);
#468=VERTEX_POINT('',#1625);
#469=VERTEX_POINT('',#1627);
#470=VERTEX_POINT('',#1629);
#471=VERTEX_POINT('',#1631);
#472=VERTEX_POINT('',#1633);
#473=VERTEX_POINT('',#1635);
#474=VERTEX_POINT('',#1639);
#475=VERTEX_POINT('',#1640);
#476=VERTEX_POINT('',#1645);
#477=VERTEX_POINT('',#1646);
#478=VERTEX_POINT('',#1648);
#479=VERTEX_POINT('',#1650);
#480=VERTEX_POINT('',#1652);
#481=VERTEX_POINT('',#1654);
#482=VERTEX_POINT('',#1656);
#483=VERTEX_POINT('',#1658);
#484=VERTEX_POINT('',#1660);
#485=VERTEX_POINT('',#1662);
#486=VERTEX_POINT('',#1664);
#487=VERTEX_POINT('',#1666);
#488=VERTEX_POINT('',#1668);
#489=VERTEX_POINT('',#1670);
#490=VERTEX_POINT('',#1672);
#491=VERTEX_POINT('',#1674);
#492=VERTEX_POINT('',#1678);
#493=VERTEX_POINT('',#1679);
#494=VERTEX_POINT('',#1684);
#495=VERTEX_POINT('',#1686);
#496=VERTEX_POINT('',#1690);
#497=VERTEX_POINT('',#1692);
#498=VERTEX_POINT('',#1696);
#499=VERTEX_POINT('',#1697);
#500=VERTEX_POINT('',#1702);
#501=VERTEX_POINT('',#1703);
#502=VERTEX_POINT('',#1705);
#503=VERTEX_POINT('',#1708);
#504=VERTEX_POINT('',#1716);
#505=VERTEX_POINT('',#1718);
#506=VERTEX_POINT('',#1743);
#507=VERTEX_POINT('',#1745);
#508=VERTEX_POINT('',#1749);
#509=VERTEX_POINT('',#1750);
#510=VERTEX_POINT('',#1752);
#511=VERTEX_POINT('',#1754);
#512=VERTEX_POINT('',#1758);
#513=VERTEX_POINT('',#1760);
#514=VERTEX_POINT('',#1764);
#515=VERTEX_POINT('',#1766);
#516=VERTEX_POINT('',#1768);
#517=VERTEX_POINT('',#1770);
#518=VERTEX_POINT('',#1774);
#519=VERTEX_POINT('',#1775);
#520=VERTEX_POINT('',#1780);
#521=VERTEX_POINT('',#1781);
#522=VERTEX_POINT('',#1804);
#523=VERTEX_POINT('',#1806);
#524=VERTEX_POINT('',#1812);
#525=VERTEX_POINT('',#1814);
#526=VERTEX_POINT('',#1820);
#527=VERTEX_POINT('',#1821);
#528=VERTEX_POINT('',#1823);
#529=VERTEX_POINT('',#1825);
#530=LINE('',#1587,#626);
#531=LINE('',#1590,#627);
#532=LINE('',#1592,#628);
#533=LINE('',#1594,#629);
#534=LINE('',#1596,#630);
#535=LINE('',#1599,#631);
#536=LINE('',#1601,#632);
#537=LINE('',#1603,#633);
#538=LINE('',#1605,#634);
#539=LINE('',#1612,#635);
#540=LINE('',#1616,#636);
#541=LINE('',#1622,#637);
#542=LINE('',#1628,#638);
#543=LINE('',#1632,#639);
#544=LINE('',#1638,#640);
#545=LINE('',#1641,#641);
#546=LINE('',#1642,#642);
#547=LINE('',#1644,#643);
#548=LINE('',#1651,#644);
#549=LINE('',#1655,#645);
#550=LINE('',#1661,#646);
#551=LINE('',#1667,#647);
#552=LINE('',#1671,#648);
#553=LINE('',#1677,#649);
#554=LINE('',#1680,#650);
#555=LINE('',#1681,#651);
#556=LINE('',#1683,#652);
#557=LINE('',#1685,#653);
#558=LINE('',#1687,#654);
#559=LINE('',#1689,#655);
#560=LINE('',#1691,#656);
#561=LINE('',#1693,#657);
#562=LINE('',#1695,#658);
#563=LINE('',#1698,#659);
#564=LINE('',#1699,#660);
#565=LINE('',#1701,#661);
#566=LINE('',#1704,#662);
#567=LINE('',#1706,#663);
#568=LINE('',#1707,#664);
#569=LINE('',#1709,#665);
#570=LINE('',#1712,#666);
#571=LINE('',#1717,#667);
#572=LINE('',#1721,#668);
#573=LINE('',#1723,#669);
#574=LINE('',#1724,#670);
#575=LINE('',#1726,#671);
#576=LINE('',#1728,#672);
#577=LINE('',#1730,#673);
#578=LINE('',#1732,#674);
#579=LINE('',#1734,#675);
#580=LINE('',#1736,#676);
#581=LINE('',#1738,#677);
#582=LINE('',#1740,#678);
#583=LINE('',#1744,#679);
#584=LINE('',#1751,#680);
#585=LINE('',#1755,#681);
#586=LINE('',#1757,#682);
#587=LINE('',#1759,#683);
#588=LINE('',#1761,#684);
#589=LINE('',#1763,#685);
#590=LINE('',#1765,#686);
#591=LINE('',#1767,#687);
#592=LINE('',#1769,#688);
#593=LINE('',#1771,#689);
#594=LINE('',#1773,#690);
#595=LINE('',#1776,#691);
#596=LINE('',#1777,#692);
#597=LINE('',#1779,#693);
#598=LINE('',#1782,#694);
#599=LINE('',#1783,#695);
#600=LINE('',#1785,#696);
#601=LINE('',#1786,#697);
#602=LINE('',#1788,#698);
#603=LINE('',#1789,#699);
#604=LINE('',#1791,#700);
#605=LINE('',#1793,#701);
#606=LINE('',#1795,#702);
#607=LINE('',#1797,#703);
#608=LINE('',#1799,#704);
#609=LINE('',#1801,#705);
#610=LINE('',#1803,#706);
#611=LINE('',#1805,#707);
#612=LINE('',#1807,#708);
#613=LINE('',#1809,#709);
#614=LINE('',#1811,#710);
#615=LINE('',#1813,#711);
#616=LINE('',#1815,#712);
#617=LINE('',#1817,#713);
#618=LINE('',#1819,#714);
#619=LINE('',#1824,#715);
#620=LINE('',#1828,#716);
#621=LINE('',#1829,#717);
#622=LINE('',#1830,#718);
#623=LINE('',#1831,#719);
#624=LINE('',#1834,#720);
#625=LINE('',#1837,#721);
#626=VECTOR('',#1331,1000.);
#627=VECTOR('',#1332,1000.);
#628=VECTOR('',#1333,1000.);
#629=VECTOR('',#1334,1000.);
#630=VECTOR('',#1337,1000.);
#631=VECTOR('',#1338,1000.);
#632=VECTOR('',#1339,1000.);
#633=VECTOR('',#1340,1000.);
#634=VECTOR('',#1343,1000.);
#635=VECTOR('',#1348,1000.);
#636=VECTOR('',#1351,1000.);
#637=VECTOR('',#1356,1000.);
#638=VECTOR('',#1361,1000.);
#639=VECTOR('',#1364,1000.);
#640=VECTOR('',#1371,1000.);
#641=VECTOR('',#1372,1000.);
#642=VECTOR('',#1373,1000.);
#643=VECTOR('',#1376,1000.);
#644=VECTOR('',#1381,1000.);
#645=VECTOR('',#1384,1000.);
#646=VECTOR('',#1389,1000.);
#647=VECTOR('',#1394,1000.);
#648=VECTOR('',#1397,1000.);
#649=VECTOR('',#1404,1000.);
#650=VECTOR('',#1405,1000.);
#651=VECTOR('',#1406,1000.);
#652=VECTOR('',#1409,1000.);
#653=VECTOR('',#1410,1000.);
#654=VECTOR('',#1411,1000.);
#655=VECTOR('',#1414,1000.);
#656=VECTOR('',#1415,1000.);
#657=VECTOR('',#1416,1000.);
#658=VECTOR('',#1419,1000.);
#659=VECTOR('',#1420,1000.);
#660=VECTOR('',#1421,1000.);
#661=VECTOR('',#1424,1000.);
#662=VECTOR('',#1425,1000.);
#663=VECTOR('',#1426,1000.);
#664=VECTOR('',#1427,1000.);
#665=VECTOR('',#1428,1000.);
#666=VECTOR('',#1433,1000.);
#667=VECTOR('',#1440,1000.);
#668=VECTOR('',#1445,1000.);
#669=VECTOR('',#1448,1000.);
#670=VECTOR('',#1449,1000.);
#671=VECTOR('',#1452,1000.);
#672=VECTOR('',#1455,1000.);
#673=VECTOR('',#1458,1000.);
#674=VECTOR('',#1461,1000.);
#675=VECTOR('',#1464,1000.);
#676=VECTOR('',#1467,1000.);
#677=VECTOR('',#1470,1000.);
#678=VECTOR('',#1473,1000.);
#679=VECTOR('',#1478,1000.);
#680=VECTOR('',#1485,1000.);
#681=VECTOR('',#1488,1000.);
#682=VECTOR('',#1491,1000.);
#683=VECTOR('',#1492,1000.);
#684=VECTOR('',#1493,1000.);
#685=VECTOR('',#1496,1000.);
#686=VECTOR('',#1497,1000.);
#687=VECTOR('',#1498,1000.);
#688=VECTOR('',#1499,1000.);
#689=VECTOR('',#1500,1000.);
#690=VECTOR('',#1503,1000.);
#691=VECTOR('',#1504,1000.);
#692=VECTOR('',#1505,1000.);
#693=VECTOR('',#1508,1000.);
#694=VECTOR('',#1509,1000.);
#695=VECTOR('',#1510,1000.);
#696=VECTOR('',#1513,1000.);
#697=VECTOR('',#1514,1000.);
#698=VECTOR('',#1517,1000.);
#699=VECTOR('',#1518,1000.);
#700=VECTOR('',#1521,1000.);
#701=VECTOR('',#1524,1000.);
#702=VECTOR('',#1527,1000.);
#703=VECTOR('',#1530,1000.);
#704=VECTOR('',#1533,1000.);
#705=VECTOR('',#1536,1000.);
#706=VECTOR('',#1539,1000.);
#707=VECTOR('',#1540,1000.);
#708=VECTOR('',#1541,1000.);
#709=VECTOR('',#1544,1000.);
#710=VECTOR('',#1547,1000.);
#711=VECTOR('',#1548,1000.);
#712=VECTOR('',#1549,1000.);
#713=VECTOR('',#1552,1000.);
#714=VECTOR('',#1555,1000.);
#715=VECTOR('',#1558,1000.);
#716=VECTOR('',#1563,1000.);
#717=VECTOR('',#1564,1000.);
#718=VECTOR('',#1565,1000.);
#719=VECTOR('',#1566,1000.);
#720=VECTOR('',#1571,1000.);
#721=VECTOR('',#1576,1000.);
#722=EDGE_LOOP('',(#66,#67,#68,#69));
#723=EDGE_LOOP('',(#70,#71,#72,#73));
#724=EDGE_LOOP('',(#74,#75,#76,#77,#78,#79,#80,#81,#82,#83,#84,#85,#86,
#87,#88,#89));
#725=EDGE_LOOP('',(#90,#91,#92,#93));
#726=EDGE_LOOP('',(#94,#95,#96,#97,#98,#99,#100,#101,#102,#103,#104,#105,
#106,#107,#108,#109));
#727=EDGE_LOOP('',(#110,#111,#112,#113));
#728=EDGE_LOOP('',(#114,#115,#116,#117));
#729=EDGE_LOOP('',(#118,#119,#120,#121));
#730=EDGE_LOOP('',(#122,#123,#124,#125));
#731=EDGE_LOOP('',(#126,#127,#128,#129,#130,#131));
#732=EDGE_LOOP('',(#132,#133,#134,#135,#136,#137));
#733=EDGE_LOOP('',(#138,#139,#140,#141));
#734=EDGE_LOOP('',(#142,#143,#144,#145));
#735=EDGE_LOOP('',(#146,#147,#148,#149));
#736=EDGE_LOOP('',(#150,#151,#152,#153));
#737=EDGE_LOOP('',(#154,#155,#156,#157));
#738=EDGE_LOOP('',(#158,#159,#160,#161));
#739=EDGE_LOOP('',(#162,#163,#164,#165));
#740=EDGE_LOOP('',(#166,#167,#168,#169));
#741=EDGE_LOOP('',(#170,#171,#172,#173));
#742=EDGE_LOOP('',(#174,#175,#176,#177));
#743=EDGE_LOOP('',(#178,#179,#180,#181));
#744=EDGE_LOOP('',(#182,#183,#184,#185,#186,#187));
#745=EDGE_LOOP('',(#188,#189,#190,#191));
#746=EDGE_LOOP('',(#192,#193,#194,#195));
#747=EDGE_LOOP('',(#196,#197,#198,#199,#200,#201));
#748=EDGE_LOOP('',(#202,#203,#204,#205));
#749=EDGE_LOOP('',(#206,#207,#208,#209));
#750=EDGE_LOOP('',(#210,#211,#212,#213));
#751=EDGE_LOOP('',(#214,#215,#216,#217));
#752=EDGE_LOOP('',(#218,#219,#220,#221,#222,#223,#224));
#753=EDGE_LOOP('',(#225,#226,#227,#228,#229,#230,#231));
#754=EDGE_LOOP('',(#232,#233,#234,#235,#236,#237,#238));
#755=EDGE_LOOP('',(#239,#240,#241,#242,#243,#244,#245));
#756=EDGE_LOOP('',(#246,#247,#248,#249));
#757=EDGE_LOOP('',(#250,#251,#252,#253));
#758=EDGE_LOOP('',(#254,#255,#256,#257));
#759=EDGE_LOOP('',(#258,#259,#260,#261));
#760=EDGE_LOOP('',(#262,#263,#264,#265));
#761=EDGE_LOOP('',(#266,#267,#268,#269));
#762=EDGE_LOOP('',(#270,#271,#272,#273));
#763=EDGE_LOOP('',(#274,#275,#276,#277,#278,#279,#280,#281,#282,#283,#284,
#285));
#764=EDGE_LOOP('',(#286,#287));
#765=EDGE_LOOP('',(#288,#289,#290,#291,#292,#293));
#766=EDGE_LOOP('',(#294,#295,#296,#297));
#767=EDGE_LOOP('',(#298,#299,#300,#301,#302,#303));
#768=EDGE_LOOP('',(#304,#305,#306,#307));
#769=EDGE_LOOP('',(#308,#309,#310,#311,#312,#313,#314,#315));
#770=EDGE_LOOP('',(#316,#317));
#771=EDGE_LOOP('',(#318,#319,#320,#321));
#772=FACE_BOUND('',#722,.T.);
#773=FACE_BOUND('',#723,.T.);
#774=FACE_BOUND('',#724,.T.);
#775=FACE_BOUND('',#725,.T.);
#776=FACE_BOUND('',#726,.T.);
#777=FACE_BOUND('',#727,.T.);
#778=FACE_BOUND('',#728,.T.);
#779=FACE_BOUND('',#729,.T.);
#780=FACE_BOUND('',#730,.T.);
#781=FACE_BOUND('',#731,.T.);
#782=FACE_BOUND('',#732,.T.);
#783=FACE_BOUND('',#733,.T.);
#784=FACE_BOUND('',#734,.T.);
#785=FACE_BOUND('',#735,.T.);
#786=FACE_BOUND('',#736,.T.);
#787=FACE_BOUND('',#737,.T.);
#788=FACE_BOUND('',#738,.T.);
#789=FACE_BOUND('',#739,.T.);
#790=FACE_BOUND('',#740,.T.);
#791=FACE_BOUND('',#741,.T.);
#792=FACE_BOUND('',#742,.T.);
#793=FACE_BOUND('',#743,.T.);
#794=FACE_BOUND('',#744,.T.);
#795=FACE_BOUND('',#745,.T.);
#796=FACE_BOUND('',#746,.T.);
#797=FACE_BOUND('',#747,.T.);
#798=FACE_BOUND('',#748,.T.);
#799=FACE_BOUND('',#749,.T.);
#800=FACE_BOUND('',#750,.T.);
#801=FACE_BOUND('',#751,.T.);
#802=FACE_BOUND('',#752,.T.);
#803=FACE_BOUND('',#753,.T.);
#804=FACE_BOUND('',#754,.T.);
#805=FACE_BOUND('',#755,.T.);
#806=FACE_BOUND('',#756,.T.);
#807=FACE_BOUND('',#757,.T.);
#808=FACE_BOUND('',#758,.T.);
#809=FACE_BOUND('',#759,.T.);
#810=FACE_BOUND('',#760,.T.);
#811=FACE_BOUND('',#761,.T.);
#812=FACE_BOUND('',#762,.T.);
#813=FACE_BOUND('',#763,.T.);
#814=FACE_BOUND('',#764,.T.);
#815=FACE_BOUND('',#765,.T.);
#816=FACE_BOUND('',#766,.T.);
#817=FACE_BOUND('',#767,.T.);
#818=FACE_BOUND('',#768,.T.);
#819=FACE_BOUND('',#769,.T.);
#820=FACE_BOUND('',#770,.T.);
#821=FACE_BOUND('',#771,.T.);
#822=PLANE('',#1247);
#823=PLANE('',#1248);
#824=PLANE('',#1249);
#825=PLANE('',#1260);
#826=PLANE('',#1261);
#827=PLANE('',#1272);
#828=PLANE('',#1273);
#829=PLANE('',#1274);
#830=PLANE('',#1275);
#831=PLANE('',#1276);
#832=PLANE('',#1285);
#833=PLANE('',#1286);
#834=PLANE('',#1289);
#835=PLANE('',#1290);
#836=PLANE('',#1299);
#837=PLANE('',#1300);
#838=PLANE('',#1301);
#839=PLANE('',#1302);
#840=PLANE('',#1303);
#841=PLANE('',#1304);
#842=PLANE('',#1305);
#843=PLANE('',#1306);
#844=PLANE('',#1307);
#845=PLANE('',#1308);
#846=PLANE('',#1311);
#847=PLANE('',#1312);
#848=PLANE('',#1313);
#849=PLANE('',#1314);
#850=PLANE('',#1318);
#851=PLANE('',#1320);
#852=PLANE('',#1321);
#853=PLANE('',#1322);
#854=PLANE('',#1323);
#855=PLANE('',#1324);
#856=STYLED_ITEM('',(#904),#1194);
#857=STYLED_ITEM('',(#905),#1195);
#858=STYLED_ITEM('',(#906),#1196);
#859=STYLED_ITEM('',(#907),#1197);
#860=STYLED_ITEM('',(#908),#1198);
#861=STYLED_ITEM('',(#909),#1199);
#862=STYLED_ITEM('',(#910),#1200);
#863=STYLED_ITEM('',(#911),#1201);
#864=STYLED_ITEM('',(#912),#1202);
#865=STYLED_ITEM('',(#913),#1203);
#866=STYLED_ITEM('',(#914),#1204);
#867=STYLED_ITEM('',(#915),#1205);
#868=STYLED_ITEM('',(#916),#1206);
#869=STYLED_ITEM('',(#917),#1207);
#870=STYLED_ITEM('',(#918),#1208);
#871=STYLED_ITEM('',(#919),#1209);
#872=STYLED_ITEM('',(#920),#1210);
#873=STYLED_ITEM('',(#921),#1211);
#874=STYLED_ITEM('',(#922),#1212);
#875=STYLED_ITEM('',(#923),#1213);
#876=STYLED_ITEM('',(#924),#1214);
#877=STYLED_ITEM('',(#925),#1215);
#878=STYLED_ITEM('',(#926),#1216);
#879=STYLED_ITEM('',(#927),#1217);
#880=STYLED_ITEM('',(#928),#1218);
#881=STYLED_ITEM('',(#929),#1219);
#882=STYLED_ITEM('',(#930),#1220);
#883=STYLED_ITEM('',(#931),#1221);
#884=STYLED_ITEM('',(#932),#1222);
#885=STYLED_ITEM('',(#933),#1223);
#886=STYLED_ITEM('',(#934),#1224);
#887=STYLED_ITEM('',(#935),#1225);
#888=STYLED_ITEM('',(#936),#1226);
#889=STYLED_ITEM('',(#937),#1227);
#890=STYLED_ITEM('',(#938),#1228);
#891=STYLED_ITEM('',(#939),#1229);
#892=STYLED_ITEM('',(#940),#1230);
#893=STYLED_ITEM('',(#941),#1231);
#894=STYLED_ITEM('',(#942),#1232);
#895=STYLED_ITEM('',(#943),#1233);
#896=STYLED_ITEM('',(#944),#1234);
#897=STYLED_ITEM('',(#945),#1235);
#898=STYLED_ITEM('',(#946),#1236);
#899=STYLED_ITEM('',(#947),#1237);
#900=STYLED_ITEM('',(#948),#1238);
#901=STYLED_ITEM('',(#949),#1239);
#902=STYLED_ITEM('',(#950),#1240);
#903=STYLED_ITEM('',(#951),#1241);
#904=PRESENTATION_STYLE_ASSIGNMENT((#952));
#905=PRESENTATION_STYLE_ASSIGNMENT((#953));
#906=PRESENTATION_STYLE_ASSIGNMENT((#954));
#907=PRESENTATION_STYLE_ASSIGNMENT((#955));
#908=PRESENTATION_STYLE_ASSIGNMENT((#956));
#909=PRESENTATION_STYLE_ASSIGNMENT((#957));
#910=PRESENTATION_STYLE_ASSIGNMENT((#958));
#911=PRESENTATION_STYLE_ASSIGNMENT((#959));
#912=PRESENTATION_STYLE_ASSIGNMENT((#960));
#913=PRESENTATION_STYLE_ASSIGNMENT((#961));
#914=PRESENTATION_STYLE_ASSIGNMENT((#962));
#915=PRESENTATION_STYLE_ASSIGNMENT((#963));
#916=PRESENTATION_STYLE_ASSIGNMENT((#964));
#917=PRESENTATION_STYLE_ASSIGNMENT((#965));
#918=PRESENTATION_STYLE_ASSIGNMENT((#966));
#919=PRESENTATION_STYLE_ASSIGNMENT((#967));
#920=PRESENTATION_STYLE_ASSIGNMENT((#968));
#921=PRESENTATION_STYLE_ASSIGNMENT((#969));
#922=PRESENTATION_STYLE_ASSIGNMENT((#970));
#923=PRESENTATION_STYLE_ASSIGNMENT((#971));
#924=PRESENTATION_STYLE_ASSIGNMENT((#972));
#925=PRESENTATION_STYLE_ASSIGNMENT((#973));
#926=PRESENTATION_STYLE_ASSIGNMENT((#974));
#927=PRESENTATION_STYLE_ASSIGNMENT((#975));
#928=PRESENTATION_STYLE_ASSIGNMENT((#976));
#929=PRESENTATION_STYLE_ASSIGNMENT((#977));
#930=PRESENTATION_STYLE_ASSIGNMENT((#978));
#931=PRESENTATION_STYLE_ASSIGNMENT((#979));
#932=PRESENTATION_STYLE_ASSIGNMENT((#980));
#933=PRESENTATION_STYLE_ASSIGNMENT((#981));
#934=PRESENTATION_STYLE_ASSIGNMENT((#982));
#935=PRESENTATION_STYLE_ASSIGNMENT((#983));
#936=PRESENTATION_STYLE_ASSIGNMENT((#984));
#937=PRESENTATION_STYLE_ASSIGNMENT((#985));
#938=PRESENTATION_STYLE_ASSIGNMENT((#986));
#939=PRESENTATION_STYLE_ASSIGNMENT((#987));
#940=PRESENTATION_STYLE_ASSIGNMENT((#988));
#941=PRESENTATION_STYLE_ASSIGNMENT((#989));
#942=PRESENTATION_STYLE_ASSIGNMENT((#990));
#943=PRESENTATION_STYLE_ASSIGNMENT((#991));
#944=PRESENTATION_STYLE_ASSIGNMENT((#992));
#945=PRESENTATION_STYLE_ASSIGNMENT((#993));
#946=PRESENTATION_STYLE_ASSIGNMENT((#994));
#947=PRESENTATION_STYLE_ASSIGNMENT((#995));
#948=PRESENTATION_STYLE_ASSIGNMENT((#996));
#949=PRESENTATION_STYLE_ASSIGNMENT((#997));
#950=PRESENTATION_STYLE_ASSIGNMENT((#998));
#951=PRESENTATION_STYLE_ASSIGNMENT((#999));
#952=SURFACE_STYLE_USAGE(.BOTH.,#1000);
#953=SURFACE_STYLE_USAGE(.BOTH.,#1001);
#954=SURFACE_STYLE_USAGE(.BOTH.,#1002);
#955=SURFACE_STYLE_USAGE(.BOTH.,#1003);
#956=SURFACE_STYLE_USAGE(.BOTH.,#1004);
#957=SURFACE_STYLE_USAGE(.BOTH.,#1005);
#958=SURFACE_STYLE_USAGE(.BOTH.,#1006);
#959=SURFACE_STYLE_USAGE(.BOTH.,#1007);
#960=SURFACE_STYLE_USAGE(.BOTH.,#1008);
#961=SURFACE_STYLE_USAGE(.BOTH.,#1009);
#962=SURFACE_STYLE_USAGE(.BOTH.,#1010);
#963=SURFACE_STYLE_USAGE(.BOTH.,#1011);
#964=SURFACE_STYLE_USAGE(.BOTH.,#1012);
#965=SURFACE_STYLE_USAGE(.BOTH.,#1013);
#966=SURFACE_STYLE_USAGE(.BOTH.,#1014);
#967=SURFACE_STYLE_USAGE(.BOTH.,#1015);
#968=SURFACE_STYLE_USAGE(.BOTH.,#1016);
#969=SURFACE_STYLE_USAGE(.BOTH.,#1017);
#970=SURFACE_STYLE_USAGE(.BOTH.,#1018);
#971=SURFACE_STYLE_USAGE(.BOTH.,#1019);
#972=SURFACE_STYLE_USAGE(.BOTH.,#1020);
#973=SURFACE_STYLE_USAGE(.BOTH.,#1021);
#974=SURFACE_STYLE_USAGE(.BOTH.,#1022);
#975=SURFACE_STYLE_USAGE(.BOTH.,#1023);
#976=SURFACE_STYLE_USAGE(.BOTH.,#1024);
#977=SURFACE_STYLE_USAGE(.BOTH.,#1025);
#978=SURFACE_STYLE_USAGE(.BOTH.,#1026);
#979=SURFACE_STYLE_USAGE(.BOTH.,#1027);
#980=SURFACE_STYLE_USAGE(.BOTH.,#1028);
#981=SURFACE_STYLE_USAGE(.BOTH.,#1029);
#982=SURFACE_STYLE_USAGE(.BOTH.,#1030);
#983=SURFACE_STYLE_USAGE(.BOTH.,#1031);
#984=SURFACE_STYLE_USAGE(.BOTH.,#1032);
#985=SURFACE_STYLE_USAGE(.BOTH.,#1033);
#986=SURFACE_STYLE_USAGE(.BOTH.,#1034);
#987=SURFACE_STYLE_USAGE(.BOTH.,#1035);
#988=SURFACE_STYLE_USAGE(.BOTH.,#1036);
#989=SURFACE_STYLE_USAGE(.BOTH.,#1037);
#990=SURFACE_STYLE_USAGE(.BOTH.,#1038);
#991=SURFACE_STYLE_USAGE(.BOTH.,#1039);
#992=SURFACE_STYLE_USAGE(.BOTH.,#1040);
#993=SURFACE_STYLE_USAGE(.BOTH.,#1041);
#994=SURFACE_STYLE_USAGE(.BOTH.,#1042);
#995=SURFACE_STYLE_USAGE(.BOTH.,#1043);
#996=SURFACE_STYLE_USAGE(.BOTH.,#1044);
#997=SURFACE_STYLE_USAGE(.BOTH.,#1045);
#998=SURFACE_STYLE_USAGE(.BOTH.,#1046);
#999=SURFACE_STYLE_USAGE(.BOTH.,#1047);
#1000=SURFACE_SIDE_STYLE('',(#1048));
#1001=SURFACE_SIDE_STYLE('',(#1049));
#1002=SURFACE_SIDE_STYLE('',(#1050));
#1003=SURFACE_SIDE_STYLE('',(#1051));
#1004=SURFACE_SIDE_STYLE('',(#1052));
#1005=SURFACE_SIDE_STYLE('',(#1053));
#1006=SURFACE_SIDE_STYLE('',(#1054));
#1007=SURFACE_SIDE_STYLE('',(#1055));
#1008=SURFACE_SIDE_STYLE('',(#1056));
#1009=SURFACE_SIDE_STYLE('',(#1057));
#1010=SURFACE_SIDE_STYLE('',(#1058));
#1011=SURFACE_SIDE_STYLE('',(#1059));
#1012=SURFACE_SIDE_STYLE('',(#1060));
#1013=SURFACE_SIDE_STYLE('',(#1061));
#1014=SURFACE_SIDE_STYLE('',(#1062));
#1015=SURFACE_SIDE_STYLE('',(#1063));
#1016=SURFACE_SIDE_STYLE('',(#1064));
#1017=SURFACE_SIDE_STYLE('',(#1065));
#1018=SURFACE_SIDE_STYLE('',(#1066));
#1019=SURFACE_SIDE_STYLE('',(#1067));
#1020=SURFACE_SIDE_STYLE('',(#1068));
#1021=SURFACE_SIDE_STYLE('',(#1069));
#1022=SURFACE_SIDE_STYLE('',(#1070));
#1023=SURFACE_SIDE_STYLE('',(#1071));
#1024=SURFACE_SIDE_STYLE('',(#1072));
#1025=SURFACE_SIDE_STYLE('',(#1073));
#1026=SURFACE_SIDE_STYLE('',(#1074));
#1027=SURFACE_SIDE_STYLE('',(#1075));
#1028=SURFACE_SIDE_STYLE('',(#1076));
#1029=SURFACE_SIDE_STYLE('',(#1077));
#1030=SURFACE_SIDE_STYLE('',(#1078));
#1031=SURFACE_SIDE_STYLE('',(#1079));
#1032=SURFACE_SIDE_STYLE('',(#1080));
#1033=SURFACE_SIDE_STYLE('',(#1081));
#1034=SURFACE_SIDE_STYLE('',(#1082));
#1035=SURFACE_SIDE_STYLE('',(#1083));
#1036=SURFACE_SIDE_STYLE('',(#1084));
#1037=SURFACE_SIDE_STYLE('',(#1085));
#1038=SURFACE_SIDE_STYLE('',(#1086));
#1039=SURFACE_SIDE_STYLE('',(#1087));
#1040=SURFACE_SIDE_STYLE('',(#1088));
#1041=SURFACE_SIDE_STYLE('',(#1089));
#1042=SURFACE_SIDE_STYLE('',(#1090));
#1043=SURFACE_SIDE_STYLE('',(#1091));
#1044=SURFACE_SIDE_STYLE('',(#1092));
#1045=SURFACE_SIDE_STYLE('',(#1093));
#1046=SURFACE_SIDE_STYLE('',(#1094));
#1047=SURFACE_SIDE_STYLE('',(#1095));
#1048=SURFACE_STYLE_FILL_AREA(#1096);
#1049=SURFACE_STYLE_FILL_AREA(#1097);
#1050=SURFACE_STYLE_FILL_AREA(#1098);
#1051=SURFACE_STYLE_FILL_AREA(#1099);
#1052=SURFACE_STYLE_FILL_AREA(#1100);
#1053=SURFACE_STYLE_FILL_AREA(#1101);
#1054=SURFACE_STYLE_FILL_AREA(#1102);
#1055=SURFACE_STYLE_FILL_AREA(#1103);
#1056=SURFACE_STYLE_FILL_AREA(#1104);
#1057=SURFACE_STYLE_FILL_AREA(#1105);
#1058=SURFACE_STYLE_FILL_AREA(#1106);
#1059=SURFACE_STYLE_FILL_AREA(#1107);
#1060=SURFACE_STYLE_FILL_AREA(#1108);
#1061=SURFACE_STYLE_FILL_AREA(#1109);
#1062=SURFACE_STYLE_FILL_AREA(#1110);
#1063=SURFACE_STYLE_FILL_AREA(#1111);
#1064=SURFACE_STYLE_FILL_AREA(#1112);
#1065=SURFACE_STYLE_FILL_AREA(#1113);
#1066=SURFACE_STYLE_FILL_AREA(#1114);
#1067=SURFACE_STYLE_FILL_AREA(#1115);
#1068=SURFACE_STYLE_FILL_AREA(#1116);
#1069=SURFACE_STYLE_FILL_AREA(#1117);
#1070=SURFACE_STYLE_FILL_AREA(#1118);
#1071=SURFACE_STYLE_FILL_AREA(#1119);
#1072=SURFACE_STYLE_FILL_AREA(#1120);
#1073=SURFACE_STYLE_FILL_AREA(#1121);
#1074=SURFACE_STYLE_FILL_AREA(#1122);
#1075=SURFACE_STYLE_FILL_AREA(#1123);
#1076=SURFACE_STYLE_FILL_AREA(#1124);
#1077=SURFACE_STYLE_FILL_AREA(#1125);
#1078=SURFACE_STYLE_FILL_AREA(#1126);
#1079=SURFACE_STYLE_FILL_AREA(#1127);
#1080=SURFACE_STYLE_FILL_AREA(#1128);
#1081=SURFACE_STYLE_FILL_AREA(#1129);
#1082=SURFACE_STYLE_FILL_AREA(#1130);
#1083=SURFACE_STYLE_FILL_AREA(#1131);
#1084=SURFACE_STYLE_FILL_AREA(#1132);
#1085=SURFACE_STYLE_FILL_AREA(#1133);
#1086=SURFACE_STYLE_FILL_AREA(#1134);
#1087=SURFACE_STYLE_FILL_AREA(#1135);
#1088=SURFACE_STYLE_FILL_AREA(#1136);
#1089=SURFACE_STYLE_FILL_AREA(#1137);
#1090=SURFACE_STYLE_FILL_AREA(#1138);
#1091=SURFACE_STYLE_FILL_AREA(#1139);
#1092=SURFACE_STYLE_FILL_AREA(#1140);
#1093=SURFACE_STYLE_FILL_AREA(#1141);
#1094=SURFACE_STYLE_FILL_AREA(#1142);
#1095=SURFACE_STYLE_FILL_AREA(#1143);
#1096=FILL_AREA_STYLE('',(#1144));
#1097=FILL_AREA_STYLE('',(#1145));
#1098=FILL_AREA_STYLE('',(#1146));
#1099=FILL_AREA_STYLE('',(#1147));
#1100=FILL_AREA_STYLE('',(#1148));
#1101=FILL_AREA_STYLE('',(#1149));
#1102=FILL_AREA_STYLE('',(#1150));
#1103=FILL_AREA_STYLE('',(#1151));
#1104=FILL_AREA_STYLE('',(#1152));
#1105=FILL_AREA_STYLE('',(#1153));
#1106=FILL_AREA_STYLE('',(#1154));
#1107=FILL_AREA_STYLE('',(#1155));
#1108=FILL_AREA_STYLE('',(#1156));
#1109=FILL_AREA_STYLE('',(#1157));
#1110=FILL_AREA_STYLE('',(#1158));
#1111=FILL_AREA_STYLE('',(#1159));
#1112=FILL_AREA_STYLE('',(#1160));
#1113=FILL_AREA_STYLE('',(#1161));
#1114=FILL_AREA_STYLE('',(#1162));
#1115=FILL_AREA_STYLE('',(#1163));
#1116=FILL_AREA_STYLE('',(#1164));
#1117=FILL_AREA_STYLE('',(#1165));
#1118=FILL_AREA_STYLE('',(#1166));
#1119=FILL_AREA_STYLE('',(#1167));
#1120=FILL_AREA_STYLE('',(#1168));
#1121=FILL_AREA_STYLE('',(#1169));
#1122=FILL_AREA_STYLE('',(#1170));
#1123=FILL_AREA_STYLE('',(#1171));
#1124=FILL_AREA_STYLE('',(#1172));
#1125=FILL_AREA_STYLE('',(#1173));
#1126=FILL_AREA_STYLE('',(#1174));
#1127=FILL_AREA_STYLE('',(#1175));
#1128=FILL_AREA_STYLE('',(#1176));
#1129=FILL_AREA_STYLE('',(#1177));
#1130=FILL_AREA_STYLE('',(#1178));
#1131=FILL_AREA_STYLE('',(#1179));
#1132=FILL_AREA_STYLE('',(#1180));
#1133=FILL_AREA_STYLE('',(#1181));
#1134=FILL_AREA_STYLE('',(#1182));
#1135=FILL_AREA_STYLE('',(#1183));
#1136=FILL_AREA_STYLE('',(#1184));
#1137=FILL_AREA_STYLE('',(#1185));
#1138=FILL_AREA_STYLE('',(#1186));
#1139=FILL_AREA_STYLE('',(#1187));
#1140=FILL_AREA_STYLE('',(#1188));
#1141=FILL_AREA_STYLE('',(#1189));
#1142=FILL_AREA_STYLE('',(#1190));
#1143=FILL_AREA_STYLE('',(#1191));
#1144=FILL_AREA_STYLE_COLOUR('',#1192);
#1145=FILL_AREA_STYLE_COLOUR('',#1192);
#1146=FILL_AREA_STYLE_COLOUR('',#1192);
#1147=FILL_AREA_STYLE_COLOUR('',#1192);
#1148=FILL_AREA_STYLE_COLOUR('',#1192);
#1149=FILL_AREA_STYLE_COLOUR('',#1192);
#1150=FILL_AREA_STYLE_COLOUR('',#1192);
#1151=FILL_AREA_STYLE_COLOUR('',#1192);
#1152=FILL_AREA_STYLE_COLOUR('',#1192);
#1153=FILL_AREA_STYLE_COLOUR('',#1192);
#1154=FILL_AREA_STYLE_COLOUR('',#1192);
#1155=FILL_AREA_STYLE_COLOUR('',#1192);
#1156=FILL_AREA_STYLE_COLOUR('',#1192);
#1157=FILL_AREA_STYLE_COLOUR('',#1192);
#1158=FILL_AREA_STYLE_COLOUR('',#1192);
#1159=FILL_AREA_STYLE_COLOUR('',#1192);
#1160=FILL_AREA_STYLE_COLOUR('',#1192);
#1161=FILL_AREA_STYLE_COLOUR('',#1192);
#1162=FILL_AREA_STYLE_COLOUR('',#1192);
#1163=FILL_AREA_STYLE_COLOUR('',#1192);
#1164=FILL_AREA_STYLE_COLOUR('',#1192);
#1165=FILL_AREA_STYLE_COLOUR('',#1192);
#1166=FILL_AREA_STYLE_COLOUR('',#1192);
#1167=FILL_AREA_STYLE_COLOUR('',#1192);
#1168=FILL_AREA_STYLE_COLOUR('',#1192);
#1169=FILL_AREA_STYLE_COLOUR('',#1192);
#1170=FILL_AREA_STYLE_COLOUR('',#1192);
#1171=FILL_AREA_STYLE_COLOUR('',#1192);
#1172=FILL_AREA_STYLE_COLOUR('',#1192);
#1173=FILL_AREA_STYLE_COLOUR('',#1192);
#1174=FILL_AREA_STYLE_COLOUR('',#1192);
#1175=FILL_AREA_STYLE_COLOUR('',#1192);
#1176=FILL_AREA_STYLE_COLOUR('',#1192);
#1177=FILL_AREA_STYLE_COLOUR('',#1192);
#1178=FILL_AREA_STYLE_COLOUR('',#1192);
#1179=FILL_AREA_STYLE_COLOUR('',#1192);
#1180=FILL_AREA_STYLE_COLOUR('',#1192);
#1181=FILL_AREA_STYLE_COLOUR('',#1192);
#1182=FILL_AREA_STYLE_COLOUR('',#1192);
#1183=FILL_AREA_STYLE_COLOUR('',#1192);
#1184=FILL_AREA_STYLE_COLOUR('',#1193);
#1185=FILL_AREA_STYLE_COLOUR('',#1193);
#1186=FILL_AREA_STYLE_COLOUR('',#1192);
#1187=FILL_AREA_STYLE_COLOUR('',#1192);
#1188=FILL_AREA_STYLE_COLOUR('',#1192);
#1189=FILL_AREA_STYLE_COLOUR('',#1192);
#1190=FILL_AREA_STYLE_COLOUR('',#1193);
#1191=FILL_AREA_STYLE_COLOUR('',#1193);
#1192=COLOUR_RGB('',0.733333349227905,0.800000011920929,0.933333337306976);
#1193=COLOUR_RGB('',0.894117653369904,0.0156862754374743,0.0156862754374743);
#1194=ADVANCED_FACE('',(#772),#822,.T.);
#1195=ADVANCED_FACE('',(#773),#823,.T.);
#1196=ADVANCED_FACE('',(#774),#824,.F.);
#1197=ADVANCED_FACE('',(#775),#825,.F.);
#1198=ADVANCED_FACE('',(#776),#826,.F.);
#1199=ADVANCED_FACE('',(#777),#827,.F.);
#1200=ADVANCED_FACE('',(#778),#828,.T.);
#1201=ADVANCED_FACE('',(#779),#829,.T.);
#1202=ADVANCED_FACE('',(#780),#830,.F.);
#1203=ADVANCED_FACE('',(#781),#831,.F.);
#1204=ADVANCED_FACE('',(#782),#20,.T.);
#1205=ADVANCED_FACE('',(#783),#21,.F.);
#1206=ADVANCED_FACE('',(#784),#22,.F.);
#1207=ADVANCED_FACE('',(#785),#23,.T.);
#1208=ADVANCED_FACE('',(#786),#832,.T.);
#1209=ADVANCED_FACE('',(#787),#833,.T.);
#1210=ADVANCED_FACE('',(#788),#24,.F.);
#1211=ADVANCED_FACE('',(#789),#25,.T.);
#1212=ADVANCED_FACE('',(#790),#834,.T.);
#1213=ADVANCED_FACE('',(#791),#835,.T.);
#1214=ADVANCED_FACE('',(#792),#26,.F.);
#1215=ADVANCED_FACE('',(#793),#27,.T.);
#1216=ADVANCED_FACE('',(#794),#28,.T.);
#1217=ADVANCED_FACE('',(#795),#29,.F.);
#1218=ADVANCED_FACE('',(#796),#836,.T.);
#1219=ADVANCED_FACE('',(#797),#837,.T.);
#1220=ADVANCED_FACE('',(#798),#838,.F.);
#1221=ADVANCED_FACE('',(#799),#839,.F.);
#1222=ADVANCED_FACE('',(#800),#840,.T.);
#1223=ADVANCED_FACE('',(#801),#841,.T.);
#1224=ADVANCED_FACE('',(#802),#842,.F.);
#1225=ADVANCED_FACE('',(#803),#843,.F.);
#1226=ADVANCED_FACE('',(#804),#844,.F.);
#1227=ADVANCED_FACE('',(#805),#845,.F.);
#1228=ADVANCED_FACE('',(#806),#30,.F.);
#1229=ADVANCED_FACE('',(#807),#31,.F.);
#1230=ADVANCED_FACE('',(#808),#846,.T.);
#1231=ADVANCED_FACE('',(#809),#847,.T.);
#1232=ADVANCED_FACE('',(#810),#848,.T.);
#1233=ADVANCED_FACE('',(#811),#849,.T.);
#1234=ADVANCED_FACE('',(#812),#32,.T.);
#1235=ADVANCED_FACE('',(#813,#814),#850,.F.);
#1236=ADVANCED_FACE('',(#815),#851,.T.);
#1237=ADVANCED_FACE('',(#816),#852,.T.);
#1238=ADVANCED_FACE('',(#817),#853,.T.);
#1239=ADVANCED_FACE('',(#818),#854,.T.);
#1240=ADVANCED_FACE('',(#819,#820),#855,.T.);
#1241=ADVANCED_FACE('',(#821),#33,.T.);
#1242=CLOSED_SHELL('',(#1194,#1195,#1196,#1197,#1198,#1199,#1200,#1201,
#1202,#1203,#1204,#1205,#1206,#1207,#1208,#1209,#1210,#1211,#1212,#1213,
#1214,#1215,#1216,#1217,#1218,#1219,#1220,#1221,#1222,#1223,#1224,#1225,
#1226,#1227,#1228,#1229,#1230,#1231,#1232,#1233,#1234,#1235,#1236,#1237,
#1238,#1239,#1240,#1241));
#1243=MANIFOLD_SOLID_BREP('NONE',#1242);
#1244=SHAPE_DEFINITION_REPRESENTATION(#1848,#1245);
#1245=SHAPE_REPRESENTATION('5011',(#1246),#1843);
#1246=AXIS2_PLACEMENT_3D('',#1585,#1327,#1328);
#1247=AXIS2_PLACEMENT_3D('',#1586,#1329,#1330);
#1248=AXIS2_PLACEMENT_3D('',#1595,#1335,#1336);
#1249=AXIS2_PLACEMENT_3D('',#1604,#1341,#1342);
#1250=AXIS2_PLACEMENT_3D('',#1608,#1344,#1345);
#1251=AXIS2_PLACEMENT_3D('',#1610,#1346,#1347);
#1252=AXIS2_PLACEMENT_3D('',#1614,#1349,#1350);
#1253=AXIS2_PLACEMENT_3D('',#1618,#1352,#1353);
#1254=AXIS2_PLACEMENT_3D('',#1620,#1354,#1355);
#1255=AXIS2_PLACEMENT_3D('',#1624,#1357,#1358);
#1256=AXIS2_PLACEMENT_3D('',#1626,#1359,#1360);
#1257=AXIS2_PLACEMENT_3D('',#1630,#1362,#1363);
#1258=AXIS2_PLACEMENT_3D('',#1634,#1365,#1366);
#1259=AXIS2_PLACEMENT_3D('',#1636,#1367,#1368);
#1260=AXIS2_PLACEMENT_3D('',#1637,#1369,#1370);
#1261=AXIS2_PLACEMENT_3D('',#1643,#1374,#1375);
#1262=AXIS2_PLACEMENT_3D('',#1647,#1377,#1378);
#1263=AXIS2_PLACEMENT_3D('',#1649,#1379,#1380);
#1264=AXIS2_PLACEMENT_3D('',#1653,#1382,#1383);
#1265=AXIS2_PLACEMENT_3D('',#1657,#1385,#1386);
#1266=AXIS2_PLACEMENT_3D('',#1659,#1387,#1388);
#1267=AXIS2_PLACEMENT_3D('',#1663,#1390,#1391);
#1268=AXIS2_PLACEMENT_3D('',#1665,#1392,#1393);
#1269=AXIS2_PLACEMENT_3D('',#1669,#1395,#1396);
#1270=AXIS2_PLACEMENT_3D('',#1673,#1398,#1399);
#1271=AXIS2_PLACEMENT_3D('',#1675,#1400,#1401);
#1272=AXIS2_PLACEMENT_3D('',#1676,#1402,#1403);
#1273=AXIS2_PLACEMENT_3D('',#1682,#1407,#1408);
#1274=AXIS2_PLACEMENT_3D('',#1688,#1412,#1413);
#1275=AXIS2_PLACEMENT_3D('',#1694,#1417,#1418);
#1276=AXIS2_PLACEMENT_3D('',#1700,#1422,#1423);
#1277=AXIS2_PLACEMENT_3D('',#1710,#1429,#1430);
#1278=AXIS2_PLACEMENT_3D('',#1711,#1431,#1432);
#1279=AXIS2_PLACEMENT_3D('',#1713,#1434,#1435);
#1280=AXIS2_PLACEMENT_3D('',#1714,#1436,#1437);
#1281=AXIS2_PLACEMENT_3D('',#1715,#1438,#1439);
#1282=AXIS2_PLACEMENT_3D('',#1719,#1441,#1442);
#1283=AXIS2_PLACEMENT_3D('',#1720,#1443,#1444);
#1284=AXIS2_PLACEMENT_3D('',#1722,#1446,#1447);
#1285=AXIS2_PLACEMENT_3D('',#1725,#1450,#1451);
#1286=AXIS2_PLACEMENT_3D('',#1727,#1453,#1454);
#1287=AXIS2_PLACEMENT_3D('',#1729,#1456,#1457);
#1288=AXIS2_PLACEMENT_3D('',#1731,#1459,#1460);
#1289=AXIS2_PLACEMENT_3D('',#1733,#1462,#1463);
#1290=AXIS2_PLACEMENT_3D('',#1735,#1465,#1466);
#1291=AXIS2_PLACEMENT_3D('',#1737,#1468,#1469);
#1292=AXIS2_PLACEMENT_3D('',#1739,#1471,#1472);
#1293=AXIS2_PLACEMENT_3D('',#1741,#1474,#1475);
#1294=AXIS2_PLACEMENT_3D('',#1742,#1476,#1477);
#1295=AXIS2_PLACEMENT_3D('',#1746,#1479,#1480);
#1296=AXIS2_PLACEMENT_3D('',#1747,#1481,#1482);
#1297=AXIS2_PLACEMENT_3D('',#1748,#1483,#1484);
#1298=AXIS2_PLACEMENT_3D('',#1753,#1486,#1487);
#1299=AXIS2_PLACEMENT_3D('',#1756,#1489,#1490);
#1300=AXIS2_PLACEMENT_3D('',#1762,#1494,#1495);
#1301=AXIS2_PLACEMENT_3D('',#1772,#1501,#1502);
#1302=AXIS2_PLACEMENT_3D('',#1778,#1506,#1507);
#1303=AXIS2_PLACEMENT_3D('',#1784,#1511,#1512);
#1304=AXIS2_PLACEMENT_3D('',#1787,#1515,#1516);
#1305=AXIS2_PLACEMENT_3D('',#1790,#1519,#1520);
#1306=AXIS2_PLACEMENT_3D('',#1792,#1522,#1523);
#1307=AXIS2_PLACEMENT_3D('',#1794,#1525,#1526);
#1308=AXIS2_PLACEMENT_3D('',#1796,#1528,#1529);
#1309=AXIS2_PLACEMENT_3D('',#1798,#1531,#1532);
#1310=AXIS2_PLACEMENT_3D('',#1800,#1534,#1535);
#1311=AXIS2_PLACEMENT_3D('',#1802,#1537,#1538);
#1312=AXIS2_PLACEMENT_3D('',#1808,#1542,#1543);
#1313=AXIS2_PLACEMENT_3D('',#1810,#1545,#1546);
#1314=AXIS2_PLACEMENT_3D('',#1816,#1550,#1551);
#1315=AXIS2_PLACEMENT_3D('',#1818,#1553,#1554);
#1316=AXIS2_PLACEMENT_3D('',#1822,#1556,#1557);
#1317=AXIS2_PLACEMENT_3D('',#1826,#1559,#1560);
#1318=AXIS2_PLACEMENT_3D('',#1827,#1561,#1562);
#1319=AXIS2_PLACEMENT_3D('',#1832,#1567,#1568);
#1320=AXIS2_PLACEMENT_3D('',#1833,#1569,#1570);
#1321=AXIS2_PLACEMENT_3D('',#1835,#1572,#1573);
#1322=AXIS2_PLACEMENT_3D('',#1836,#1574,#1575);
#1323=AXIS2_PLACEMENT_3D('',#1838,#1577,#1578);
#1324=AXIS2_PLACEMENT_3D('',#1839,#1579,#1580);
#1325=AXIS2_PLACEMENT_3D('',#1840,#1581,#1582);
#1326=AXIS2_PLACEMENT_3D('',#1841,#1583,#1584);
#1327=DIRECTION('',(0.,0.,1.));
#1328=DIRECTION('',(1.,0.,0.));
#1329=DIRECTION('',(-0.184488071080355,-0.98283475296158,0.));
#1330=DIRECTION('',(0.98283475296158,-0.184488071080355,0.));
#1331=DIRECTION('',(0.98283475296158,-0.184488071080355,7.23843704352484E-16));
#1332=DIRECTION('',(-1.28850938944308E-16,2.41866306732615E-17,1.));
#1333=DIRECTION('',(-0.98283475296158,0.184488071080355,-7.23843704352484E-16));
#1334=DIRECTION('',(0.,0.,-1.));
#1335=DIRECTION('',(0.,-1.,0.));
#1336=DIRECTION('',(0.,0.,-1.));
#1337=DIRECTION('',(-1.,0.,7.11418748350069E-16));
#1338=DIRECTION('',(-1.33391015315638E-16,0.,-1.));
#1339=DIRECTION('',(1.,0.,-7.11418748350069E-16));
#1340=DIRECTION('',(0.,0.,1.));
#1341=DIRECTION('',(7.11418748350069E-16,1.33540528779649E-16,1.));
#1342=DIRECTION('',(1.,0.,-7.11418748350069E-16));
#1343=DIRECTION('',(1.,0.,-7.11418748350069E-16));
#1344=DIRECTION('',(0.,0.,1.));
#1345=DIRECTION('',(1.,0.,0.));
#1346=DIRECTION('',(0.,0.,-1.));
#1347=DIRECTION('',(-1.,0.,0.));
#1348=DIRECTION('',(3.48840272278415E-16,1.,0.));
#1349=DIRECTION('',(0.,0.,-1.));
#1350=DIRECTION('',(-1.,0.,0.));
#1351=DIRECTION('',(1.74420136139207E-16,-1.,0.));
#1352=DIRECTION('',(0.,0.,-1.));
#1353=DIRECTION('',(-1.,0.,0.));
#1354=DIRECTION('',(0.,0.,1.));
#1355=DIRECTION('',(1.,0.,0.));
#1356=DIRECTION('',(-1.,0.,0.));
#1357=DIRECTION('',(0.,0.,1.));
#1358=DIRECTION('',(1.,0.,0.));
#1359=DIRECTION('',(0.,0.,-1.));
#1360=DIRECTION('',(-1.,0.,0.));
#1361=DIRECTION('',(1.74420136139207E-16,-1.,0.));
#1362=DIRECTION('',(0.,0.,-1.));
#1363=DIRECTION('',(-1.,0.,0.));
#1364=DIRECTION('',(3.48840272278415E-16,1.,0.));
#1365=DIRECTION('',(0.,0.,-1.));
#1366=DIRECTION('',(-1.,0.,0.));
#1367=DIRECTION('',(0.,0.,1.));
#1368=DIRECTION('',(1.,0.,0.));
#1369=DIRECTION('',(0.98283475296158,0.184488071080355,0.));
#1370=DIRECTION('',(-0.184488071080355,0.98283475296158,0.));
#1371=DIRECTION('',(0.,0.,1.));
#1372=DIRECTION('',(0.184488071080355,-0.98283475296158,0.));
#1373=DIRECTION('',(0.184488071080355,-0.98283475296158,0.));
#1374=DIRECTION('',(-7.11418748350069E-16,-1.33540528779649E-16,-1.));
#1375=DIRECTION('',(-1.,0.,7.11418748350069E-16));
#1376=DIRECTION('',(-1.,0.,7.11418748350069E-16));
#1377=DIRECTION('',(0.,0.,1.));
#1378=DIRECTION('',(1.,0.,0.));
#1379=DIRECTION('',(0.,0.,-1.));
#1380=DIRECTION('',(-1.,0.,0.));
#1381=DIRECTION('',(1.74420136139207E-16,-1.,0.));
#1382=DIRECTION('',(0.,0.,-1.));
#1383=DIRECTION('',(-1.,0.,0.));
#1384=DIRECTION('',(3.48840272278415E-16,1.,0.));
#1385=DIRECTION('',(0.,0.,-1.));
#1386=DIRECTION('',(-1.,0.,0.));
#1387=DIRECTION('',(0.,0.,1.));
#1388=DIRECTION('',(1.,0.,0.));
#1389=DIRECTION('',(1.,0.,0.));
#1390=DIRECTION('',(0.,0.,1.));
#1391=DIRECTION('',(1.,0.,0.));
#1392=DIRECTION('',(0.,0.,-1.));
#1393=DIRECTION('',(-1.,0.,0.));
#1394=DIRECTION('',(3.48840272278415E-16,1.,0.));
#1395=DIRECTION('',(0.,0.,-1.));
#1396=DIRECTION('',(-1.,0.,0.));
#1397=DIRECTION('',(1.74420136139207E-16,-1.,0.));
#1398=DIRECTION('',(0.,0.,-1.));
#1399=DIRECTION('',(-1.,0.,0.));
#1400=DIRECTION('',(0.,0.,1.));
#1401=DIRECTION('',(1.,0.,0.));
#1402=DIRECTION('',(-0.98283475296158,-0.184488071080355,1.31101325585039E-16));
#1403=DIRECTION('',(0.184488071080355,-0.98283475296158,0.));
#1404=DIRECTION('',(-1.3647695430265E-16,1.64399143217982E-17,-1.));
#1405=DIRECTION('',(0.184488071080355,-0.98283475296158,0.));
#1406=DIRECTION('',(0.184488071080355,-0.98283475296158,0.));
#1407=DIRECTION('',(-0.910909107446295,0.412607074553253,0.));
#1408=DIRECTION('',(-0.412607074553253,-0.910909107446295,0.));
#1409=DIRECTION('',(0.412607074553253,0.910909107446295,0.));
#1410=DIRECTION('',(0.,0.,-1.));
#1411=DIRECTION('',(0.412607074553253,0.910909107446295,0.));
#1412=DIRECTION('',(0.910909107446295,-0.412607074553253,-1.31101325585039E-16));
#1413=DIRECTION('',(0.412607074553253,0.910909107446295,0.));
#1414=DIRECTION('',(0.412607074553253,0.910909107446295,0.));
#1415=DIRECTION('',(1.31101325585039E-16,-2.83076438376422E-17,1.));
#1416=DIRECTION('',(0.412607074553253,0.910909107446295,0.));
#1417=DIRECTION('',(1.,0.,0.));
#1418=DIRECTION('',(0.,0.,-1.));
#1419=DIRECTION('',(0.,0.,1.));
#1420=DIRECTION('',(0.,1.,0.));
#1421=DIRECTION('',(0.,1.,0.));
#1422=DIRECTION('',(-1.,0.,1.31101325585039E-16));
#1423=DIRECTION('',(1.31101325585039E-16,0.,1.));
#1424=DIRECTION('',(-1.31101325585039E-16,0.,-1.));
#1425=DIRECTION('',(0.,1.,0.));
#1426=DIRECTION('',(0.,1.,0.));
#1427=DIRECTION('',(0.,1.,0.));
#1428=DIRECTION('',(0.,1.,0.));
#1429=DIRECTION('',(0.,0.,1.));
#1430=DIRECTION('',(1.,0.,0.));
#1431=DIRECTION('',(0.,0.,1.));
#1432=DIRECTION('',(1.,0.,0.));
#1433=DIRECTION('',(-7.39675035685433E-17,-1.08242163623941E-16,-1.));
#1434=DIRECTION('',(0.,0.,1.));
#1435=DIRECTION('',(1.,0.,0.));
#1436=DIRECTION('',(0.,0.,1.));
#1437=DIRECTION('',(1.,0.,0.));
#1438=DIRECTION('',(0.,0.,1.));
#1439=DIRECTION('',(1.,0.,0.));
#1440=DIRECTION('',(0.,0.,-1.));
#1441=DIRECTION('',(0.,0.,1.));
#1442=DIRECTION('',(1.,0.,0.));
#1443=DIRECTION('',(0.,0.,-1.));
#1444=DIRECTION('',(-1.,0.,0.));
#1445=DIRECTION('',(-1.31101325585039E-16,-1.4791141972894E-31,-1.));
#1446=DIRECTION('',(0.,0.,-1.));
#1447=DIRECTION('',(-1.,0.,0.));
#1448=DIRECTION('',(0.,0.,1.));
#1449=DIRECTION('',(0.,0.,1.));
#1450=DIRECTION('',(1.,-3.48840272278415E-16,-1.31101325585039E-16));
#1451=DIRECTION('',(3.48840272278415E-16,1.,0.));
#1452=DIRECTION('',(-1.31101325585039E-16,-1.4791141972894E-31,-1.));
#1453=DIRECTION('',(-1.,3.48840272278415E-16,0.));
#1454=DIRECTION('',(-3.48840272278415E-16,-1.,0.));
#1455=DIRECTION('',(0.,0.,1.));
#1456=DIRECTION('',(0.,0.,-1.));
#1457=DIRECTION('',(-1.,0.,0.));
#1458=DIRECTION('',(1.31101325585039E-16,1.63966171359537E-31,-1.));
#1459=DIRECTION('',(0.,0.,-1.));
#1460=DIRECTION('',(-1.,0.,0.));
#1461=DIRECTION('',(0.,0.,1.));
#1462=DIRECTION('',(-1.,-1.74420136139207E-16,-1.31101325585039E-16));
#1463=DIRECTION('',(1.74420136139207E-16,-1.,0.));
#1464=DIRECTION('',(1.31101325585039E-16,1.63966171359537E-31,-1.));
#1465=DIRECTION('',(1.,1.74420136139207E-16,0.));
#1466=DIRECTION('',(-1.74420136139207E-16,1.,0.));
#1467=DIRECTION('',(0.,0.,1.));
#1468=DIRECTION('',(0.,0.,-1.));
#1469=DIRECTION('',(-1.,0.,0.));
#1470=DIRECTION('',(7.39675035685436E-17,-1.08242163623941E-16,-1.));
#1471=DIRECTION('',(0.,0.,-1.));
#1472=DIRECTION('',(-1.,0.,0.));
#1473=DIRECTION('',(0.,0.,1.));
#1474=DIRECTION('',(0.,0.,1.));
#1475=DIRECTION('',(1.,0.,0.));
#1476=DIRECTION('',(0.,0.,1.));
#1477=DIRECTION('',(1.,0.,0.));
#1478=DIRECTION('',(1.31101325585039E-16,2.83496887813801E-31,-1.));
#1479=DIRECTION('',(0.,0.,1.));
#1480=DIRECTION('',(1.,0.,0.));
#1481=DIRECTION('',(0.,0.,1.));
#1482=DIRECTION('',(1.,0.,0.));
#1483=DIRECTION('',(0.,0.,1.));
#1484=DIRECTION('',(1.,0.,0.));
#1485=DIRECTION('',(0.,0.,1.));
#1486=DIRECTION('',(0.,0.,1.));
#1487=DIRECTION('',(1.,0.,0.));
#1488=DIRECTION('',(0.,0.,1.));
#1489=DIRECTION('',(1.,0.,0.));
#1490=DIRECTION('',(0.,0.,-1.));
#1491=DIRECTION('',(0.,-1.,0.));
#1492=DIRECTION('',(0.,0.,-1.));
#1493=DIRECTION('',(0.,-1.,0.));
#1494=DIRECTION('',(-1.,0.,-1.31101325585039E-16));
#1495=DIRECTION('',(-1.31101325585039E-16,0.,1.));
#1496=DIRECTION('',(0.,-1.,0.));
#1497=DIRECTION('',(0.,-1.,0.));
#1498=DIRECTION('',(-1.31101325585039E-16,-2.83076438376423E-17,1.));
#1499=DIRECTION('',(0.,-1.,0.));
#1500=DIRECTION('',(0.,-1.,0.));
#1501=DIRECTION('',(0.910909107446295,0.412607074553253,1.31101325585039E-16));
#1502=DIRECTION('',(-0.412607074553253,0.910909107446295,0.));
#1503=DIRECTION('',(1.3647695430265E-16,1.64399143217982E-17,-1.));
#1504=DIRECTION('',(0.412607074553253,-0.910909107446295,0.));
#1505=DIRECTION('',(0.412607074553253,-0.910909107446295,0.));
#1506=DIRECTION('',(-0.910909107446295,-0.412607074553253,0.));
#1507=DIRECTION('',(0.412607074553253,-0.910909107446295,0.));
#1508=DIRECTION('',(0.,0.,1.));
#1509=DIRECTION('',(0.412607074553253,-0.910909107446295,0.));
#1510=DIRECTION('',(0.412607074553253,-0.910909107446295,0.));
#1511=DIRECTION('',(-0.98283475296158,0.184488071080355,-1.31101325585039E-16));
#1512=DIRECTION('',(-0.184488071080355,-0.98283475296158,0.));
#1513=DIRECTION('',(-0.184488071080355,-0.98283475296158,0.));
#1514=DIRECTION('',(-0.184488071080355,-0.98283475296158,0.));
#1515=DIRECTION('',(0.98283475296158,-0.184488071080355,0.));
#1516=DIRECTION('',(0.184488071080355,0.98283475296158,0.));
#1517=DIRECTION('',(-0.184488071080355,-0.98283475296158,0.));
#1518=DIRECTION('',(-0.184488071080355,-0.98283475296158,0.));
#1519=DIRECTION('',(7.11418748350069E-16,1.33540528779649E-16,1.));
#1520=DIRECTION('',(1.,0.,-7.11418748350069E-16));
#1521=DIRECTION('',(1.,0.,-7.11418748350069E-16));
#1522=DIRECTION('',(7.11418748350069E-16,1.33540528779649E-16,1.));
#1523=DIRECTION('',(1.,0.,-7.11418748350069E-16));
#1524=DIRECTION('',(1.,0.,-7.11418748350069E-16));
#1525=DIRECTION('',(-7.11418748350069E-16,-1.33540528779649E-16,-1.));
#1526=DIRECTION('',(-1.,0.,7.11418748350069E-16));
#1527=DIRECTION('',(-1.,0.,7.11418748350069E-16));
#1528=DIRECTION('',(-7.11418748350069E-16,-1.33540528779649E-16,-1.));
#1529=DIRECTION('',(-1.,0.,7.11418748350069E-16));
#1530=DIRECTION('',(-1.,0.,7.11418748350069E-16));
#1531=DIRECTION('',(0.,0.,1.));
#1532=DIRECTION('',(1.,0.,0.));
#1533=DIRECTION('',(0.,0.,1.));
#1534=DIRECTION('',(0.,0.,1.));
#1535=DIRECTION('',(1.,0.,0.));
#1536=DIRECTION('',(0.,0.,-1.));
#1537=DIRECTION('',(1.,0.,0.));
#1538=DIRECTION('',(0.,0.,-1.));
#1539=DIRECTION('',(0.,-1.,0.));
#1540=DIRECTION('',(0.,0.,1.));
#1541=DIRECTION('',(0.,-1.,0.));
#1542=DIRECTION('',(0.,0.,1.));
#1543=DIRECTION('',(1.,0.,0.));
#1544=DIRECTION('',(-1.,0.,0.));
#1545=DIRECTION('',(-1.,0.,0.));
#1546=DIRECTION('',(0.,0.,1.));
#1547=DIRECTION('',(0.,-1.,0.));
#1548=DIRECTION('',(0.,0.,-1.));
#1549=DIRECTION('',(0.,-1.,0.));
#1550=DIRECTION('',(0.,0.,-1.));
#1551=DIRECTION('',(-1.,0.,0.));
#1552=DIRECTION('',(1.,0.,0.));
#1553=DIRECTION('',(0.,-1.,0.));
#1554=DIRECTION('',(0.,0.,-1.));
#1555=DIRECTION('',(0.,-1.,0.));
#1556=DIRECTION('',(0.,1.,0.));
#1557=DIRECTION('',(0.,0.,1.));
#1558=DIRECTION('',(0.,-1.,0.));
#1559=DIRECTION('',(0.,1.,0.));
#1560=DIRECTION('',(0.,0.,1.));
#1561=DIRECTION('',(0.,1.,0.));
#1562=DIRECTION('',(0.,0.,1.));
#1563=DIRECTION('',(1.,0.,0.));
#1564=DIRECTION('',(1.,0.,0.));
#1565=DIRECTION('',(-1.,0.,0.));
#1566=DIRECTION('',(-1.,0.,0.));
#1567=DIRECTION('',(0.,1.,0.));
#1568=DIRECTION('',(0.,0.,1.));
#1569=DIRECTION('',(0.,0.,1.));
#1570=DIRECTION('',(1.,0.,0.));
#1571=DIRECTION('',(-1.,0.,0.));
#1572=DIRECTION('',(0.,0.,1.));
#1573=DIRECTION('',(1.,0.,0.));
#1574=DIRECTION('',(0.,0.,-1.));
#1575=DIRECTION('',(-1.,0.,0.));
#1576=DIRECTION('',(1.,0.,0.));
#1577=DIRECTION('',(0.,0.,-1.));
#1578=DIRECTION('',(-1.,0.,0.));
#1579=DIRECTION('',(0.,1.,0.));
#1580=DIRECTION('',(0.,0.,1.));
#1581=DIRECTION('',(0.,1.,0.));
#1582=DIRECTION('',(0.,0.,1.));
#1583=DIRECTION('',(0.,-1.,0.));
#1584=DIRECTION('',(0.,0.,-1.));
#1585=CARTESIAN_POINT('',(0.,0.,0.));
#1586=CARTESIAN_POINT('',(0.611258511038897,-3.14045466182355,-1.62630325872826E-16));
#1587=CARTESIAN_POINT('',(1.43646959341995,-3.29535516810282,0.4064));
#1588=CARTESIAN_POINT('',(0.427242340153564,-3.10591295650439,0.4064));
#1589=CARTESIAN_POINT('',(0.795274681924231,-3.17499636714271,0.4064));
#1590=CARTESIAN_POINT('',(0.427242340153565,-3.10591295650439,0.4064));
#1591=CARTESIAN_POINT('',(0.427242340153565,-3.10591295650439,-0.4064));
#1592=CARTESIAN_POINT('',(1.10060572665327,-3.23231010713132,-0.4064));
#1593=CARTESIAN_POINT('',(0.795274681924231,-3.17499636714271,-0.4064));
#1594=CARTESIAN_POINT('',(0.795274681924231,-3.17499636714271,-0.4064));
#1595=CARTESIAN_POINT('',(-0.414274,-3.175,-0.4064));
#1596=CARTESIAN_POINT('',(-0.414274,-3.175,-0.4064));
#1597=CARTESIAN_POINT('',(-0.414274,-3.175,-0.4064));
#1598=CARTESIAN_POINT('',(-0.795274,-3.175,-0.4064));
#1599=CARTESIAN_POINT('',(-0.414274,-3.175,0.4064));
#1600=CARTESIAN_POINT('',(-0.414274,-3.175,0.4064));
#1601=CARTESIAN_POINT('',(-0.795274,-3.175,0.4064));
#1602=CARTESIAN_POINT('',(-0.795274,-3.175,0.4064));
#1603=CARTESIAN_POINT('',(-0.795274,-3.175,-0.4064));
#1604=CARTESIAN_POINT('',(-0.897781101973953,-0.599182602479704,-0.4064));
#1605=CARTESIAN_POINT('',(-2.89120579329469E-16,3.048,-0.406400000000001));
#1606=CARTESIAN_POINT('',(-0.524524359082181,3.048,-0.4064));
#1607=CARTESIAN_POINT('',(-0.114345022486343,3.048,-0.4064));
#1608=CARTESIAN_POINT('',(-0.8382,2.83170483674234,-0.4064));
#1609=CARTESIAN_POINT('',(-0.623228295716088,3.14628896175683,-0.4064));
#1610=CARTESIAN_POINT('',(0.214080151731385,4.37158484981302,-0.4064));
#1611=CARTESIAN_POINT('',(-1.26998030844343,4.37158484981301,-0.4064));
#1612=CARTESIAN_POINT('',(-1.26998030844343,4.37158484981301,-0.4064));
#1613=CARTESIAN_POINT('',(-1.26998030844343,6.858,-0.4064));
#1614=CARTESIAN_POINT('',(1.25136298725513E-16,6.858,-0.4064));
#1615=CARTESIAN_POINT('',(1.26998030844343,6.858,-0.4064));
#1616=CARTESIAN_POINT('',(1.26998030844343,6.858,-0.4064));
#1617=CARTESIAN_POINT('',(1.26998030844343,4.37158484981302,-0.4064));
#1618=CARTESIAN_POINT('',(-0.214080151731385,4.37158484981302,-0.4064));
#1619=CARTESIAN_POINT('',(0.62322829571609,3.14628896175683,-0.4064));
#1620=CARTESIAN_POINT('',(0.8382,2.83170483674234,-0.4064));
#1621=CARTESIAN_POINT('',(0.524524359082181,3.048,-0.4064));
#1622=CARTESIAN_POINT('',(0.4572,3.048,-0.4064));
#1623=CARTESIAN_POINT('',(0.114345022486344,3.048,-0.4064));
#1624=CARTESIAN_POINT('',(0.8382,2.83170483674234,-0.4064));
#1625=CARTESIAN_POINT('',(0.411957553133239,3.45545719353868,-0.4064));
#1626=CARTESIAN_POINT('',(-0.214080151731385,4.37158484981302,-0.4064));
#1627=CARTESIAN_POINT('',(0.895520267565071,4.37158484981301,-0.4064));
#1628=CARTESIAN_POINT('',(0.895520267565071,6.858,-0.4064));
#1629=CARTESIAN_POINT('',(0.895520267565071,6.858,-0.4064));
#1630=CARTESIAN_POINT('',(1.25136298725513E-16,6.858,-0.4064));
#1631=CARTESIAN_POINT('',(-0.89552026756507,6.858,-0.4064));
#1632=CARTESIAN_POINT('',(-0.895520267565071,4.37158484981302,-0.4064));
#1633=CARTESIAN_POINT('',(-0.895520267565071,4.37158484981302,-0.4064));
#1634=CARTESIAN_POINT('',(0.214080151731385,4.37158484981302,-0.4064));
#1635=CARTESIAN_POINT('',(-0.41195755313324,3.45545719353868,-0.4064));
#1636=CARTESIAN_POINT('',(-0.8382,2.83170483674234,-0.4064));
#1637=CARTESIAN_POINT('',(-1.27878110197395,-0.599182602479704,-0.4064));
#1638=CARTESIAN_POINT('',(-1.11757950101836,-1.45796189766347,-0.4064));
#1639=CARTESIAN_POINT('',(-1.11757950101836,-1.45796189766347,-0.4064));
#1640=CARTESIAN_POINT('',(-1.11757950101836,-1.45796189766347,0.4064));
#1641=CARTESIAN_POINT('',(-1.27878110197395,-0.599182602479704,-0.4064));
#1642=CARTESIAN_POINT('',(-1.27878110197395,-0.599182602479704,0.4064));
#1643=CARTESIAN_POINT('',(-1.27878110197395,-0.599182602479704,0.4064));
#1644=CARTESIAN_POINT('',(2.89120579329467E-16,3.048,0.406399999999999));
#1645=CARTESIAN_POINT('',(0.524524359082181,3.048,0.4064));
#1646=CARTESIAN_POINT('',(0.114345022486344,3.048,0.4064));
#1647=CARTESIAN_POINT('',(0.8382,2.83170483674234,0.4064));
#1648=CARTESIAN_POINT('',(0.62322829571609,3.14628896175683,0.4064));
#1649=CARTESIAN_POINT('',(-0.214080151731385,4.37158484981302,0.4064));
#1650=CARTESIAN_POINT('',(1.26998030844343,4.37158484981302,0.4064));
#1651=CARTESIAN_POINT('',(1.26998030844343,6.858,0.4064));
#1652=CARTESIAN_POINT('',(1.26998030844343,6.858,0.4064));
#1653=CARTESIAN_POINT('',(1.25136298725513E-16,6.858,0.4064));
#1654=CARTESIAN_POINT('',(-1.26998030844343,6.858,0.4064));
#1655=CARTESIAN_POINT('',(-1.26998030844343,4.37158484981301,0.4064));
#1656=CARTESIAN_POINT('',(-1.26998030844343,4.37158484981301,0.4064));
#1657=CARTESIAN_POINT('',(0.214080151731385,4.37158484981302,0.4064));
#1658=CARTESIAN_POINT('',(-0.623228295716089,3.14628896175683,0.4064));
#1659=CARTESIAN_POINT('',(-0.8382,2.83170483674234,0.4064));
#1660=CARTESIAN_POINT('',(-0.524524359082181,3.048,0.4064));
#1661=CARTESIAN_POINT('',(0.4572,3.048,0.4064));
#1662=CARTESIAN_POINT('',(-0.114345022486343,3.048,0.4064));
#1663=CARTESIAN_POINT('',(-0.8382,2.83170483674234,0.4064));
#1664=CARTESIAN_POINT('',(-0.41195755313324,3.45545719353868,0.4064));
#1665=CARTESIAN_POINT('',(0.214080151731385,4.37158484981302,0.4064));
#1666=CARTESIAN_POINT('',(-0.895520267565071,4.37158484981302,0.4064));
#1667=CARTESIAN_POINT('',(-0.895520267565071,4.37158484981302,0.4064));
#1668=CARTESIAN_POINT('',(-0.89552026756507,6.858,0.4064));
#1669=CARTESIAN_POINT('',(1.25136298725513E-16,6.858,0.4064));
#1670=CARTESIAN_POINT('',(0.895520267565071,6.858,0.4064));
#1671=CARTESIAN_POINT('',(0.895520267565071,6.858,0.4064));
#1672=CARTESIAN_POINT('',(0.895520267565071,4.37158484981301,0.4064));
#1673=CARTESIAN_POINT('',(-0.214080151731385,4.37158484981302,0.4064));
#1674=CARTESIAN_POINT('',(0.411957553133239,3.45545719353868,0.4064));
#1675=CARTESIAN_POINT('',(0.8382,2.83170483674234,0.4064));
#1676=CARTESIAN_POINT('',(-0.897781101973953,-0.599182602479704,0.4064));
#1677=CARTESIAN_POINT('',(-0.727765243541802,-1.50491863865374,0.4064));
#1678=CARTESIAN_POINT('',(-0.727765243541802,-1.50491863865374,0.4064));
#1679=CARTESIAN_POINT('',(-0.727765243541802,-1.50491863865374,-0.4064));
#1680=CARTESIAN_POINT('',(-0.897781101973953,-0.599182602479704,0.4064));
#1681=CARTESIAN_POINT('',(-0.897781101973953,-0.599182602479704,-0.4064));
#1682=CARTESIAN_POINT('',(-1.11757950101836,-1.45796189766347,-0.4064));
#1683=CARTESIAN_POINT('',(-1.11757950101836,-1.45796189766347,0.4064));
#1684=CARTESIAN_POINT('',(-0.457179988834875,-9.9513804020096E-7,0.4064));
#1685=CARTESIAN_POINT('',(-0.457180308443431,-4.25183778636484E-6,-0.4064));
#1686=CARTESIAN_POINT('',(-0.457179988834875,-9.9513804020096E-7,-0.4064));
#1687=CARTESIAN_POINT('',(-1.11757950101836,-1.45796189766347,-0.4064));
#1688=CARTESIAN_POINT('',(-0.727765243541802,-1.50491863865374,0.4064));
#1689=CARTESIAN_POINT('',(-0.727765243541802,-1.50491863865374,-0.4064));
#1690=CARTESIAN_POINT('',(-0.0827202675650694,-0.0808583654122357,-0.4064));
#1691=CARTESIAN_POINT('',(-0.0827202675650694,-0.0808583654122357,0.4064));
#1692=CARTESIAN_POINT('',(-0.0827202675650693,-0.0808583654122358,0.4064));
#1693=CARTESIAN_POINT('',(-0.727765243541802,-1.50491863865374,0.4064));
#1694=CARTESIAN_POINT('',(-0.457180308443431,-4.25183778636484E-6,-0.4064));
#1695=CARTESIAN_POINT('',(-0.457180308443431,2.83170483674234,-0.4064));
#1696=CARTESIAN_POINT('',(-0.457180308443431,2.83170483674234,-0.4064));
#1697=CARTESIAN_POINT('',(-0.457180308443431,2.83170483674234,0.4064));
#1698=CARTESIAN_POINT('',(-0.457180308443431,-4.25183778627336E-6,-0.4064));
#1699=CARTESIAN_POINT('',(-0.457180308443431,-4.25183778636484E-6,0.4064));
#1700=CARTESIAN_POINT('',(-0.0827202675650694,-0.0808583654122357,0.4064));
#1701=CARTESIAN_POINT('',(-0.0827202675650694,2.83170483674234,0.4064));
#1702=CARTESIAN_POINT('',(-0.0827202675650693,2.83170483674234,0.4064));
#1703=CARTESIAN_POINT('',(-0.0827202675650694,2.83170483674234,-0.4064));
#1704=CARTESIAN_POINT('',(-0.0827202675650693,-0.0808583654122358,0.4064));
#1705=CARTESIAN_POINT('',(-0.0827202675650693,0.,0.4064));
#1706=CARTESIAN_POINT('',(-0.0827202675650693,-0.0808583654122358,0.4064));
#1707=CARTESIAN_POINT('',(-0.0827202675650694,-0.0808583654122357,-0.4064));
#1708=CARTESIAN_POINT('',(-0.0827202675650694,0.,-0.4064));
#1709=CARTESIAN_POINT('',(-0.0827202675650694,-0.0808583654122357,-0.4064));
#1710=CARTESIAN_POINT('',(-0.8382,2.83170483674234,0.));
#1711=CARTESIAN_POINT('',(-0.8382,2.83170483674234,-0.4064));
#1712=CARTESIAN_POINT('',(-0.41195755313324,3.45545719353868,0.4064));
#1713=CARTESIAN_POINT('',(-0.8382,2.83170483674234,0.4064));
#1714=CARTESIAN_POINT('',(-0.8382,2.83170483674234,0.));
#1715=CARTESIAN_POINT('',(-0.8382,2.83170483674234,0.4064));
#1716=CARTESIAN_POINT('',(-0.4572,2.83557851120758,0.4064));
#1717=CARTESIAN_POINT('',(-0.4572,2.83557851120759,0.));
#1718=CARTESIAN_POINT('',(-0.4572,2.83557851120759,-0.4064));
#1719=CARTESIAN_POINT('',(-0.8382,2.83170483674234,-0.4064));
#1720=CARTESIAN_POINT('',(0.214080151731385,4.37158484981302,0.));
#1721=CARTESIAN_POINT('',(-0.895520267565071,4.37158484981302,0.4064));
#1722=CARTESIAN_POINT('',(0.214080151731385,4.37158484981302,0.));
#1723=CARTESIAN_POINT('',(-0.623228295716089,3.14628896175683,-0.4064));
#1724=CARTESIAN_POINT('',(-1.26998030844343,4.37158484981301,-0.4064));
#1725=CARTESIAN_POINT('',(-0.895520267565071,4.37158484981302,0.4064));
#1726=CARTESIAN_POINT('',(-0.89552026756507,6.858,0.4064));
#1727=CARTESIAN_POINT('',(-1.26998030844343,4.37158484981301,-0.4064));
#1728=CARTESIAN_POINT('',(-1.26998030844343,6.858,-0.4064));
#1729=CARTESIAN_POINT('',(1.25136298725513E-16,6.858,0.));
#1730=CARTESIAN_POINT('',(0.895520267565071,6.858,0.4064));
#1731=CARTESIAN_POINT('',(1.25136298725513E-16,6.858,0.));
#1732=CARTESIAN_POINT('',(1.26998030844343,6.858,-0.4064));
#1733=CARTESIAN_POINT('',(0.895520267565071,6.858,0.4064));
#1734=CARTESIAN_POINT('',(0.895520267565071,4.37158484981301,0.4064));
#1735=CARTESIAN_POINT('',(1.26998030844343,6.858,-0.4064));
#1736=CARTESIAN_POINT('',(1.26998030844343,4.37158484981302,-0.4064));
#1737=CARTESIAN_POINT('',(-0.214080151731385,4.37158484981302,0.));
#1738=CARTESIAN_POINT('',(0.411957553133239,3.45545719353868,0.4064));
#1739=CARTESIAN_POINT('',(-0.214080151731385,4.37158484981302,0.));
#1740=CARTESIAN_POINT('',(0.62322829571609,3.14628896175683,-0.4064));
#1741=CARTESIAN_POINT('',(0.8382,2.83170483674234,0.));
#1742=CARTESIAN_POINT('',(0.8382,2.83170483674234,-0.4064));
#1743=CARTESIAN_POINT('',(0.0827202675650705,2.83170483674234,-0.4064));
#1744=CARTESIAN_POINT('',(0.0827202675650705,2.83170483674234,0.4064));
#1745=CARTESIAN_POINT('',(0.0827202675650701,2.83170483674234,0.4064));
#1746=CARTESIAN_POINT('',(0.8382,2.83170483674234,0.4064));
#1747=CARTESIAN_POINT('',(0.8382,2.83170483674234,0.));
#1748=CARTESIAN_POINT('',(0.8382,2.83170483674234,-0.4064));
#1749=CARTESIAN_POINT('',(0.4572,2.83557851120754,-0.4064));
#1750=CARTESIAN_POINT('',(0.457180308443432,2.83170483674234,-0.4064));
#1751=CARTESIAN_POINT('',(0.4572,2.83557851120754,0.));
#1752=CARTESIAN_POINT('',(0.4572,2.83557851120753,0.4064));
#1753=CARTESIAN_POINT('',(0.8382,2.83170483674234,0.4064));
#1754=CARTESIAN_POINT('',(0.457180308443432,2.83170483674234,0.4064));
#1755=CARTESIAN_POINT('',(0.457180308443432,2.83170483674234,-0.4064));
#1756=CARTESIAN_POINT('',(0.457180308443432,2.83170483674234,-0.4064));
#1757=CARTESIAN_POINT('',(0.457180308443432,2.83170483674234,0.4064));
#1758=CARTESIAN_POINT('',(0.457179988834875,-9.95138040190038E-7,0.4064));
#1759=CARTESIAN_POINT('',(0.457180308443432,-4.25183778636484E-6,-0.4064));
#1760=CARTESIAN_POINT('',(0.457179988834875,-9.95138040190038E-7,-0.4064));
#1761=CARTESIAN_POINT('',(0.457180308443432,2.83170483674234,-0.4064));
#1762=CARTESIAN_POINT('',(0.0827202675650705,2.83170483674234,0.4064));
#1763=CARTESIAN_POINT('',(0.0827202675650705,2.83170483674234,-0.4064));
#1764=CARTESIAN_POINT('',(0.0827202675650706,0.,-0.4064));
#1765=CARTESIAN_POINT('',(0.0827202675650705,2.83170483674234,-0.4064));
#1766=CARTESIAN_POINT('',(0.0827202675650706,-0.0808583654122348,-0.4064));
#1767=CARTESIAN_POINT('',(0.0827202675650705,-0.0808583654122348,0.4064));
#1768=CARTESIAN_POINT('',(0.0827202675650705,-0.0808583654122361,0.4064));
#1769=CARTESIAN_POINT('',(0.0827202675650705,2.83170483674234,0.4064));
#1770=CARTESIAN_POINT('',(0.0827202675650705,0.,0.4064));
#1771=CARTESIAN_POINT('',(0.0827202675650705,2.83170483674234,0.4064));
#1772=CARTESIAN_POINT('',(0.0827202675650705,-0.0808583654122348,0.4064));
#1773=CARTESIAN_POINT('',(0.727765243541803,-1.50491863865374,0.4064));
#1774=CARTESIAN_POINT('',(0.727765243541802,-1.50491863865374,0.4064));
#1775=CARTESIAN_POINT('',(0.727765243541803,-1.50491863865374,-0.4064));
#1776=CARTESIAN_POINT('',(0.0827202675650705,-0.0808583654122361,0.4064));
#1777=CARTESIAN_POINT('',(0.0827202675650706,-0.0808583654122348,-0.4064));
#1778=CARTESIAN_POINT('',(0.457180308443432,-4.25183778636484E-6,-0.4064));
#1779=CARTESIAN_POINT('',(1.11757950101836,-1.45796189766347,-0.4064));
#1780=CARTESIAN_POINT('',(1.11757950101836,-1.45796189766347,-0.4064));
#1781=CARTESIAN_POINT('',(1.11757950101836,-1.45796189766347,0.4064));
#1782=CARTESIAN_POINT('',(0.457180308443432,-4.25183778636484E-6,-0.4064));
#1783=CARTESIAN_POINT('',(0.457180308443432,-4.25183778636484E-6,0.4064));
#1784=CARTESIAN_POINT('',(0.727765243541803,-1.50491863865374,0.4064));
#1785=CARTESIAN_POINT('',(0.727765243541803,-1.50491863865374,-0.4064));
#1786=CARTESIAN_POINT('',(0.727765243541802,-1.50491863865374,0.4064));
#1787=CARTESIAN_POINT('',(1.11757950101836,-1.45796189766347,-0.4064));
#1788=CARTESIAN_POINT('',(1.11757950101836,-1.45796189766347,0.4064));
#1789=CARTESIAN_POINT('',(1.11757950101836,-1.45796189766347,-0.4064));
#1790=CARTESIAN_POINT('',(-0.897781101973953,-0.599182602479704,-0.4064));
#1791=CARTESIAN_POINT('',(-2.89120579329469E-16,0.,-0.406400000000001));
#1792=CARTESIAN_POINT('',(-0.897781101973953,-0.599182602479704,-0.4064));
#1793=CARTESIAN_POINT('',(-2.89120579329469E-16,0.,-0.406400000000001));
#1794=CARTESIAN_POINT('',(-1.27878110197395,-0.599182602479704,0.4064));
#1795=CARTESIAN_POINT('',(2.89120579329467E-16,0.,0.406399999999999));
#1796=CARTESIAN_POINT('',(-1.27878110197395,-0.599182602479704,0.4064));
#1797=CARTESIAN_POINT('',(2.89120579329467E-16,0.,0.406399999999999));
#1798=CARTESIAN_POINT('',(-0.8382,2.83170483674234,0.));
#1799=CARTESIAN_POINT('',(-0.524524359082181,3.048,0.));
#1800=CARTESIAN_POINT('',(0.8382,2.83170483674234,0.));
#1801=CARTESIAN_POINT('',(0.524524359082181,3.048,0.));
#1802=CARTESIAN_POINT('',(-0.4572,3.048,0.4064));
#1803=CARTESIAN_POINT('',(-0.4572,3.048,0.4064));
#1804=CARTESIAN_POINT('',(-0.4572,0.,0.4064));
#1805=CARTESIAN_POINT('',(-0.4572,0.,0.4064));
#1806=CARTESIAN_POINT('',(-0.4572,0.,-0.4064));
#1807=CARTESIAN_POINT('',(-0.4572,3.048,-0.4064));
#1808=CARTESIAN_POINT('',(0.4572,3.048,-0.4064));
#1809=CARTESIAN_POINT('',(0.4572,0.,-0.4064));
#1810=CARTESIAN_POINT('',(0.4572,3.048,0.4064));
#1811=CARTESIAN_POINT('',(0.4572,3.048,-0.4064));
#1812=CARTESIAN_POINT('',(0.4572,0.,-0.4064));
#1813=CARTESIAN_POINT('',(0.4572,0.,0.4064));
#1814=CARTESIAN_POINT('',(0.4572,0.,0.4064));
#1815=CARTESIAN_POINT('',(0.4572,3.048,0.4064));
#1816=CARTESIAN_POINT('',(0.4572,3.048,0.4064));
#1817=CARTESIAN_POINT('',(0.4572,0.,0.4064));
#1818=CARTESIAN_POINT('',(0.,3.048,0.));
#1819=CARTESIAN_POINT('',(1.94406258669302E-16,3.048,1.5875));
#1820=CARTESIAN_POINT('',(1.94406258669302E-16,3.048,1.5875));
#1821=CARTESIAN_POINT('',(1.94406258669302E-16,0.,1.5875));
#1822=CARTESIAN_POINT('',(0.,3.048,0.));
#1823=CARTESIAN_POINT('',(0.,3.048,-1.5875));
#1824=CARTESIAN_POINT('',(0.,3.048,-1.5875));
#1825=CARTESIAN_POINT('',(0.,0.,-1.5875));
#1826=CARTESIAN_POINT('',(0.,0.,0.));
#1827=CARTESIAN_POINT('',(0.,0.,0.));
#1828=CARTESIAN_POINT('',(0.4572,0.,0.4064));
#1829=CARTESIAN_POINT('',(0.4572,0.,0.4064));
#1830=CARTESIAN_POINT('',(0.4572,0.,-0.4064));
#1831=CARTESIAN_POINT('',(0.4572,0.,-0.4064));
#1832=CARTESIAN_POINT('',(0.,0.,0.));
#1833=CARTESIAN_POINT('',(0.4572,3.048,-0.4064));
#1834=CARTESIAN_POINT('',(0.4572,3.048,-0.4064));
#1835=CARTESIAN_POINT('',(0.4572,3.048,-0.4064));
#1836=CARTESIAN_POINT('',(0.4572,3.048,0.4064));
#1837=CARTESIAN_POINT('',(0.4572,3.048,0.4064));
#1838=CARTESIAN_POINT('',(0.4572,3.048,0.4064));
#1839=CARTESIAN_POINT('',(0.,3.048,0.));
#1840=CARTESIAN_POINT('',(0.,3.048,0.));
#1841=CARTESIAN_POINT('',(0.,3.048,0.));
#1842=MECHANICAL_DESIGN_GEOMETRIC_PRESENTATION_REPRESENTATION('',(#856,
#857,#858,#859,#860,#861,#862,#863,#864,#865,#866,#867,#868,#869,#870,#871,
#872,#873,#874,#875,#876,#877,#878,#879,#880,#881,#882,#883,#884,#885,#886,
#887,#888,#889,#890,#891,#892,#893,#894,#895,#896,#897,#898,#899,#900,#901,
#902,#903),#1843);
#1843=(
GEOMETRIC_REPRESENTATION_CONTEXT(3)
GLOBAL_UNCERTAINTY_ASSIGNED_CONTEXT((#1844))
GLOBAL_UNIT_ASSIGNED_CONTEXT((#1847,#1846,#1845))
REPRESENTATION_CONTEXT('5011','TOP_LEVEL_ASSEMBLY_PART')
);
#1844=UNCERTAINTY_MEASURE_WITH_UNIT(LENGTH_MEASURE(0.005),#1847,
'DISTANCE_ACCURACY_VALUE','Maximum Tolerance applied to model');
#1845=(
NAMED_UNIT(*)
SI_UNIT($,.STERADIAN.)
SOLID_ANGLE_UNIT()
);
#1846=(
NAMED_UNIT(*)
PLANE_ANGLE_UNIT()
SI_UNIT($,.RADIAN.)
);
#1847=(
LENGTH_UNIT()
NAMED_UNIT(*)
SI_UNIT(.MILLI.,.METRE.)
);
#1848=PRODUCT_DEFINITION_SHAPE('','',#1849);
#1849=PRODUCT_DEFINITION('','',#1851,#1850);
#1850=PRODUCT_DEFINITION_CONTEXT('',#1857,'design');
#1851=PRODUCT_DEFINITION_FORMATION_WITH_SPECIFIED_SOURCE('','',#1853,
 .NOT_KNOWN.);
#1852=PRODUCT_RELATED_PRODUCT_CATEGORY('','',(#1853));
#1853=PRODUCT('5011','5011','5011',(#1855));
#1854=PRODUCT_CATEGORY('','');
#1855=PRODUCT_CONTEXT('',#1857,'mechanical');
#1856=APPLICATION_PROTOCOL_DEFINITION('international standard',
'automotive_design',2010,#1857);
#1857=APPLICATION_CONTEXT(
'core data for automotive mechanical design processes');
ENDSEC;
END-ISO-10303-21;
